<svg
  width="80"
  height="80"
  viewBox="-7 -18 80 80"
  fill="none"
  xmlns="http://www.w3.org/2000/svg"
>
  <path
    d="M68.8491 2.94196C67.1165 -0.0829114 61.9787 -0.659638 53.9872 1.27063C50.4741 2.11807 46.5893 3.40688 42.5126 5.06055C37.1709 3.03024 31.3437 3.13028 26.08 5.36069C20.7623 7.61463 16.6496 11.7635 14.5094 17.0482C13.4303 19.7141 12.9207 22.5036 12.9686 25.2872C10.6305 27.1468 8.52626 29.0006 6.71573 30.8073C0.954424 36.5687 -1.16185 41.2002 0.606707 44.2074C2.37527 47.2146 7.51908 47.7325 15.4866 45.7139C22.0812 44.0426 29.9768 40.7941 37.9743 36.4863C38.4958 36.2038 39.1133 36.1567 39.6649 36.3686C40.4023 36.6511 41.1097 37.1513 41.9071 37.8928L43.3339 39.5936L42.5485 37.5279C41.9251 34.9974 42.3027 33.6144 44.1313 31.7254L45.8638 30.3247L43.7656 31.1015C41.1877 31.7136 39.7788 31.3428 37.8544 29.5479L36.4275 27.8472L37.2129 29.9128C37.5426 31.2546 37.5906 32.2727 37.2908 33.2201C37.1409 33.6909 36.7932 34.0735 36.3496 34.3089C32.0331 36.6216 27.7586 38.6108 23.7239 40.1938C20.9361 38.2753 18.64 35.6035 17.1952 32.308C13.0346 22.839 17.483 11.8518 27.1291 7.76764C22.309 9.80972 20.0848 15.3004 22.1651 20.0378C24.2455 24.7693 29.8389 26.9526 34.665 24.9106C39.557 22.839 45.2523 25.1165 47.2547 30.0011C49.2391 34.8385 46.6012 40.3527 41.6613 42.2771C37.9982 43.7013 34.1314 43.9308 30.5343 43.1363C29.2574 43.7013 27.9984 44.2368 26.7634 44.737C29.3233 45.7198 31.9971 46.2141 34.671 46.2141C37.5846 46.2141 40.4982 45.6315 43.256 44.4604C52.4525 40.5646 57.5124 31.1251 56.1275 21.8268C58.5435 19.9613 60.7137 18.0958 62.5782 16.2714C68.4115 10.5807 70.5817 5.96684 68.8491 2.94196ZM20.7923 41.2884C18.706 42.0241 16.6976 42.642 14.8031 43.1245C7.30325 45.0254 3.77213 44.2427 2.96878 42.8715C2.16544 41.5003 3.23856 38.1047 8.66414 32.6846C10.037 31.3134 11.5838 29.9187 13.2804 28.5063C13.5681 30.1482 14.0597 31.7724 14.7492 33.3437C16.1281 36.4745 18.1964 39.1757 20.7923 41.2884ZM55.48 18.9138C55.2342 18.0958 54.9405 17.2836 54.5867 16.4774C53.2079 13.3466 51.1395 10.6395 48.5377 8.5268C45.3782 9.64494 42.027 11.0397 38.5858 12.6757C37.7165 13.0877 37.021 13.788 36.6314 14.6531C35.9179 16.242 35.9179 17.9016 36.4875 20.2085L37.6505 23.2569L35.5462 20.7499C32.7106 18.1016 30.6303 17.5543 26.8293 18.4547L23.7239 19.5964L26.2778 17.5308C28.9756 14.7472 29.5331 12.7051 28.6159 8.97406L27.4528 5.91976L29.5571 8.42675C31.1998 9.96273 32.5847 10.7866 34.2033 11.0397C35.0187 11.1633 35.852 11.0044 36.5954 10.6513C39.7608 9.12118 42.8663 7.77941 45.8399 6.66126C45.8339 6.65538 45.8279 6.65538 45.8219 6.64949C48.9393 5.4725 51.9069 4.53091 54.6347 3.87179C62.1586 2.05333 65.6777 2.87723 66.4691 4.25431C67.2604 5.63139 66.1453 9.01525 60.6538 14.3765C59.131 15.8654 57.3925 17.3896 55.48 18.9138Z"
    fill="black"
  />
</svg>