<?xml version="1.0" encoding="UTF-8" standalone="no"?>
<svg
   xmlns:dc="http://purl.org/dc/elements/1.1/"
   xmlns:cc="http://creativecommons.org/ns#"
   xmlns:rdf="http://www.w3.org/1999/02/22-rdf-syntax-ns#"
   xmlns:svg="http://www.w3.org/2000/svg"
   xmlns="http://www.w3.org/2000/svg"
   viewBox="0 0 793.70135 793.70135"
   height="793.70135"
   width="793.70135"
   xml:space="preserve"
   id="svg2"
   version="1.1"><metadata
     id="metadata8"><rdf:RDF><cc:Work
         rdf:about=""><dc:format>image/svg+xml</dc:format><dc:type
           rdf:resource="http://purl.org/dc/dcmitype/StillImage" /></cc:Work></rdf:RDF></metadata><defs
     id="defs6"><clipPath
       id="clipPath18"
       clipPathUnits="userSpaceOnUse"><path
         id="path16"
         d="M 0,595.276 H 595.276 V 0 H 0 Z" /></clipPath><clipPath
       id="clipPath26"
       clipPathUnits="userSpaceOnUse"><path
         id="path24"
         d="M 217.81,451.075 H 411.848 V 294.039 H 217.81 Z" /></clipPath><clipPath
       id="clipPath42"
       clipPathUnits="userSpaceOnUse"><path
         id="path40"
         d="M 112.704,453.949 H 283.175 V 299.107 H 112.704 Z" /></clipPath><clipPath
       id="clipPath58"
       clipPathUnits="userSpaceOnUse"><path
         id="path56"
         d="M 357.418,454.55 H 509.321 V 298.506 H 357.418 Z" /></clipPath><clipPath
       id="clipPath74"
       clipPathUnits="userSpaceOnUse"><path
         id="path72"
         d="M 0,595.276 H 595.276 V 0 H 0 Z" /></clipPath></defs><g
     transform="matrix(1.3333333,0,0,-1.3333333,0,793.70133)"
     id="g10"><g
       id="g12"><g
         clip-path="url(#clipPath18)"
         id="g14"><g
           id="g20"><g
             id="g22" /><g
             id="g34"><g
               style="opacity:0.19999701"
               id="g32"
               clip-path="url(#clipPath26)"><g
                 id="g30"
                 transform="translate(315.415,294.0456)"><path
                   id="path28"
                   style="fill:#2b9651;fill-opacity:1;fill-rule:nonzero;stroke:none"
                   d="m 0,0 c -29.914,0.001 -59.827,0 -89.74,0.002 -1.519,0 -3.04,-0.039 -4.552,0.156 -2.97,0.384 -4.11,2.387 -2.734,5.043 1.916,3.696 4.436,7.019 6.737,10.473 30.486,45.757 60.992,91.5 91.501,137.242 0.685,1.028 1.413,2.036 2.203,2.984 0.63,0.756 1.455,1.355 2.511,1.047 1.057,-0.308 1.449,-1.215 1.496,-2.232 0.072,-1.548 0.073,-3.087 -0.417,-4.604 C 6.702,149.172 6.8,148.145 6.696,147.161 6.153,142.007 5.773,136.835 5.208,131.684 4.681,126.889 4.234,122.088 3.75,117.29 3.273,112.569 2.719,107.856 2.343,103.125 1.432,91.667 0.137,80.245 -0.991,68.808 -1.82,60.397 1.604,53.844 7.58,48.297 11.431,44.723 16.155,42.634 20.779,40.371 36.577,32.637 52.38,24.915 68.184,17.195 76.373,13.196 84.571,9.217 92.76,5.217 93.585,4.815 94.396,4.372 95.172,3.884 95.992,3.37 96.602,2.661 96.392,1.607 96.184,0.563 95.303,0.304 94.41,0.161 93.022,-0.061 91.618,0.002 90.219,0.002 60.146,-0.001 30.073,-0.001 0,0" /></g></g></g></g><g
           id="g36"><g
             id="g38" /><g
             id="g50"><g
               style="opacity:0.19999701"
               id="g48"
               clip-path="url(#clipPath42)"><g
                 id="g46"
                 transform="translate(171.0674,302.4431)"><path
                   id="path44"
                   style="fill:#2b9651;fill-opacity:1;fill-rule:nonzero;stroke:none"
                   d="m 0,0 c 0.539,4.645 1.076,9.291 1.618,13.935 1.248,10.68 2.497,21.359 3.748,32.038 1.308,11.156 2.65,22.309 3.921,33.469 1.204,10.563 2.653,21.099 3.579,31.692 0.276,3.158 -0.832,5.618 -3.771,7.126 -3.988,2.046 -8.139,3.725 -12.226,5.549 -9.381,4.185 -18.782,8.327 -28.195,12.44 -2.409,1.052 -4.739,2.276 -7.162,3.281 -5.025,2.084 -9.871,4.563 -14.902,6.621 -1.21,0.495 -2.442,0.919 -3.59,1.556 -1.018,0.564 -1.627,1.593 -1.289,2.444 0.421,1.059 1.338,1.288 2.373,1.121 1.046,-0.169 2.037,0.235 3.076,0.234 52.474,-0.019 104.949,-0.012 157.423,-0.036 1.811,-0.001 3.628,-0.235 5.431,-0.458 1.519,-0.188 2.421,-1.883 1.947,-3.526 -0.487,-1.689 -1.507,-3.11 -2.605,-4.411 -1.827,-2.166 -3.269,-4.594 -4.926,-6.873 C 95.717,124.188 87.065,112.116 78.365,100.079 71.371,90.402 64.361,80.737 57.335,71.085 53.538,65.868 49.612,60.744 45.89,55.476 41.892,49.818 37.764,44.257 33.721,38.633 27.531,30.021 21.354,21.4 15.158,12.792 11.944,8.326 8.702,3.881 5.477,-0.577 4.913,-1.358 4.323,-2.121 3.551,-2.701 2.933,-3.165 2.204,-3.562 1.436,-3.188 0.607,-2.784 0.094,-2.065 0.069,-1.086 0.06,-0.727 0.067,-0.367 0.067,-0.007 0.045,-0.005 0.022,-0.002 0,0" /></g></g></g></g><g
           id="g52"><g
             id="g54" /><g
             id="g66"><g
               style="opacity:0.19999701"
               id="g64"
               clip-path="url(#clipPath58)"><g
                 id="g62"
                 transform="translate(434.3955,454.549)"><path
                   id="path60"
                   style="fill:#2b9651;fill-opacity:1;fill-rule:nonzero;stroke:none"
                   d="m 0,0 c 22.913,-0.001 45.825,0 68.738,-0.005 1.358,-0.001 2.717,0.044 4.069,-0.193 0.977,-0.172 1.808,-0.573 2.062,-1.573 0.268,-1.055 -0.461,-1.726 -1.227,-2.267 C 72.127,-5.107 70.383,-5.737 68.709,-6.489 51.285,-14.318 33.848,-22.12 16.42,-29.941 12.412,-31.739 8.705,-33.958 5.911,-37.474 3.484,-40.526 2.856,-44.169 2.29,-47.862 c -0.881,-5.737 0.008,-11.407 0.588,-17.085 1.057,-10.338 2.164,-20.67 3.25,-31.005 1.329,-12.64 2.663,-25.279 3.987,-37.919 0.654,-6.241 1.294,-12.483 1.923,-18.726 0.056,-0.551 0.017,-1.118 -0.037,-1.672 -0.077,-0.796 -0.359,-1.529 -1.229,-1.718 -0.83,-0.181 -1.52,0.079 -2.104,0.796 -1.299,1.593 -2.231,3.406 -3.242,5.169 -6.845,11.917 -13.671,23.844 -20.498,35.771 -6.471,11.304 -12.931,22.613 -19.406,33.915 -6.733,11.752 -13.487,23.491 -20.217,35.245 -6.789,11.857 -13.566,23.721 -20.336,35.588 -0.713,1.25 -1.378,2.53 -1.751,3.935 -0.684,2.568 0.46,4.546 3.033,5.2 1.248,0.318 2.531,0.352 3.811,0.353 C -64.579,-0.007 -59.221,0 -53.862,0 -35.908,0.002 -17.954,0.001 0,0" /></g></g></g></g></g></g><g
       id="g68"><g
         clip-path="url(#clipPath74)"
         id="g70"><g
           transform="translate(320.7539,190.9343)"
           id="g76"><path
             id="path78"
             style="fill:#2b9651;fill-opacity:1;fill-rule:nonzero;stroke:none"
             d="m 0,0 c -2.437,0 -4.873,-0.025 -7.309,0.016 -0.72,0.011 -0.962,-0.173 -0.957,-0.931 0.036,-4.433 0.034,-8.866 0.002,-13.299 -0.005,-0.724 0.19,-0.957 0.934,-0.952 4.872,0.03 9.745,0.025 14.617,0.004 0.658,-0.004 0.905,0.165 0.901,0.866 C 8.16,-9.823 8.155,-5.35 8.191,-0.877 8.197,-0.072 7.861,0.021 7.189,0.013 4.793,-0.02 2.396,0 0,0 m 11.15,-44.127 c -0.083,0.24 -0.312,0.193 -0.49,0.254 -1.758,0.602 -2.49,1.61 -2.492,3.481 -0.007,5.838 -0.034,11.677 0.024,17.514 0.011,1.133 -0.244,1.477 -1.431,1.471 -10.117,-0.051 -20.235,-0.03 -30.352,-0.027 -0.559,0 -1.122,0.007 -1.676,0.076 -1.775,0.22 -3.075,1.586 -3.025,3.138 0.049,1.529 1.467,2.864 3.251,2.902 2.718,0.058 5.439,0.072 8.156,10e-4 1.021,-0.028 1.251,0.288 1.24,1.265 -0.05,4.678 -0.025,9.357 -0.021,14.035 0.002,3.633 2.28,6.012 5.941,6.048 C -4.166,6.086 1.393,6.066 6.951,6.035 7.829,6.03 8.213,6.17 8.191,7.187 8.121,10.506 8.143,13.825 8.181,17.145 8.19,17.95 8.002,18.252 7.128,18.245 2.249,18.203 -2.63,18.207 -7.509,18.244 -8.231,18.25 -8.55,17.961 -8.866,17.377 -11.757,12.042 -15.315,7.2 -19.583,2.876 c -1.291,-1.31 -2.748,-1.63 -4.481,-1.19 -1.951,0.495 -3.218,3.233 -1.325,5.094 6.458,6.348 11.083,13.872 13.646,22.598 0.461,1.566 1.524,2.316 3,2.525 1.559,0.221 2.931,-0.234 3.886,-1.591 0.497,-0.707 0.539,-1.497 0.31,-2.291 -0.329,-1.142 -0.709,-2.269 -1.072,-3.416 0.432,-0.247 0.875,-0.126 1.293,-0.126 13.077,-0.008 26.153,-0.009 39.23,0 0.893,0 1.758,-0.083 2.557,-0.5 2.243,-1.174 2.336,-3.723 0.196,-5.079 -0.807,-0.511 -1.694,-0.641 -2.633,-0.639 -6.118,0.01 -12.237,-0.024 -18.354,0.032 -1.03,0.009 -1.237,-0.285 -1.219,-1.256 0.065,-3.278 0.054,-6.558 0.005,-9.836 -0.012,-0.841 0.225,-1.065 1.062,-1.059 5.478,0.037 10.957,0.021 16.435,0.013 0.518,0 1.042,-0.018 1.551,-0.106 C 36.197,5.757 37.374,4.469 37.336,3 37.297,1.527 35.919,0.173 34.248,0.036 33.413,-0.033 32.569,0.002 31.729,0.001 26.691,-0.001 21.652,-0.018 16.614,0.018 c -0.835,0.005 -1.176,-0.115 -1.164,-1.08 0.06,-4.358 0.052,-8.717 0.004,-13.076 -0.009,-0.876 0.281,-1.033 1.083,-1.03 7.238,0.03 14.477,0.022 21.715,0.01 0.675,-0.001 1.364,-0.044 2.021,-0.185 1.546,-0.331 2.585,-1.61 2.554,-3.037 -0.031,-1.441 -1.225,-2.724 -2.808,-2.952 -0.63,-0.091 -1.276,-0.1 -1.915,-0.101 -7.118,-0.005 -14.236,-0.022 -21.354,0.018 -0.96,0.006 -1.201,-0.278 -1.194,-1.213 0.042,-5.599 -0.083,-11.199 0.069,-16.794 0.066,-2.432 -0.729,-3.969 -3.034,-4.705 z" /></g><g
           transform="translate(66.9707,213.7575)"
           id="g80"><path
             id="path82"
             style="fill:#2b9651;fill-opacity:1;fill-rule:nonzero;stroke:none"
             d="M 0,0 C 0.909,1.988 2.478,2.531 4.604,2.516 15.242,2.437 25.881,2.484 36.52,2.476 c 2.915,-0.002 4.525,-1.801 4.046,-4.449 -0.118,-0.651 -0.481,-1.176 -0.811,-1.718 -7.997,-13.113 -14.194,-27.001 -18.05,-41.897 -0.89,-3.436 -1.63,-6.907 -2.254,-10.401 -0.42,-2.349 -2.107,-3.653 -4.299,-3.268 -2.041,0.359 -3.279,2.264 -2.86,4.525 0.625,3.371 1.355,6.72 2.24,10.035 3.769,14.115 9.436,27.409 17.181,39.807 0.144,0.23 0.283,0.463 0.519,0.851 -0.548,0.026 -0.961,0.062 -1.374,0.062 C 22.059,-3.973 13.259,-3.935 4.46,-4.003 2.373,-4.019 0.826,-3.447 0,-1.439 Z" /></g><g
           transform="translate(459.0928,146.8073)"
           id="g84"><path
             id="path86"
             style="fill:#2b9651;fill-opacity:1;fill-rule:nonzero;stroke:none"
             d="m 0,0 c -0.082,0.302 -0.379,0.25 -0.581,0.339 -1.501,0.663 -2.263,1.737 -2.256,3.448 0.035,8.514 0.016,17.028 0.016,25.542 0,10.233 0.079,20.467 -0.043,30.698 -0.042,3.508 3.47,4.471 5.516,3.464 1.23,-0.604 1.973,-1.53 1.958,-3.012 C 4.573,56.562 4.598,52.644 4.598,48.727 4.599,34.097 4.549,19.467 4.647,4.838 4.664,2.415 4.042,0.774 1.68,0 Z" /></g><g
           transform="translate(301.5986,300.3928)"
           id="g88"><path
             id="path90"
             style="fill:#2b9651;fill-opacity:1;fill-rule:nonzero;stroke:none"
             d="m 0,0 c -29.914,0 -59.827,0 -89.74,0.002 -1.519,0 -3.04,-0.039 -4.552,0.156 -2.97,0.384 -4.11,2.387 -2.733,5.043 1.915,3.696 4.435,7.019 6.736,10.473 30.486,45.757 60.992,91.5 91.501,137.241 0.685,1.028 1.413,2.037 2.203,2.985 0.63,0.755 1.455,1.354 2.511,1.047 1.057,-0.308 1.449,-1.215 1.496,-2.232 0.072,-1.548 0.073,-3.087 -0.417,-4.604 C 6.702,149.172 6.8,148.145 6.696,147.16 6.152,142.006 5.773,136.835 5.208,131.684 4.681,126.889 4.234,122.088 3.75,117.29 3.273,112.568 2.719,107.856 2.343,103.124 1.432,91.666 0.137,80.245 -0.991,68.808 -1.82,60.396 1.604,53.844 7.58,48.297 11.431,44.723 16.155,42.634 20.779,40.37 36.577,32.637 52.379,24.914 68.184,17.195 76.372,13.196 84.571,9.216 92.761,5.217 93.585,4.814 94.395,4.371 95.172,3.884 95.992,3.37 96.602,2.661 96.392,1.608 96.184,0.563 95.303,0.304 94.41,0.161 93.022,-0.061 91.618,0.001 90.219,0.001 60.146,-0.001 30.073,-0.001 0,0" /></g><g
           transform="translate(157.251,308.7902)"
           id="g92"><path
             id="path94"
             style="fill:#2b9651;fill-opacity:1;fill-rule:nonzero;stroke:none"
             d="m 0,0 c 0.539,4.645 1.076,9.29 1.618,13.935 1.248,10.679 2.497,21.359 3.748,32.038 1.308,11.156 2.65,22.308 3.921,33.469 1.204,10.563 2.653,21.099 3.579,31.692 0.276,3.158 -0.832,5.618 -3.771,7.126 -3.988,2.046 -8.139,3.725 -12.226,5.549 -9.381,4.185 -18.782,8.326 -28.195,12.439 -2.409,1.052 -4.739,2.277 -7.162,3.282 -5.025,2.083 -9.871,4.563 -14.902,6.62 -1.21,0.496 -2.442,0.92 -3.59,1.557 -1.018,0.564 -1.627,1.593 -1.289,2.444 0.421,1.059 1.338,1.287 2.372,1.121 1.047,-0.169 2.038,0.234 3.077,0.234 52.474,-0.019 104.949,-0.012 157.423,-0.036 1.811,-0.001 3.628,-0.236 5.431,-0.459 1.518,-0.188 2.421,-1.882 1.947,-3.525 -0.487,-1.689 -1.507,-3.11 -2.605,-4.411 -1.827,-2.167 -3.269,-4.594 -4.926,-6.873 C 95.717,124.188 87.065,112.116 78.365,100.078 71.371,90.402 64.361,80.737 57.335,71.084 53.538,65.868 49.612,60.744 45.89,55.476 41.892,49.818 37.764,44.257 33.721,38.633 27.531,30.021 21.354,21.399 15.158,12.792 11.944,8.326 8.702,3.88 5.477,-0.578 4.913,-1.358 4.323,-2.121 3.551,-2.701 2.933,-3.166 2.204,-3.562 1.436,-3.188 c -0.829,0.404 -1.342,1.123 -1.367,2.101 -0.009,0.36 -0.002,0.72 -0.002,1.08 z" /></g><g
           transform="translate(420.5791,460.8957)"
           id="g96"><path
             id="path98"
             style="fill:#2b9651;fill-opacity:1;fill-rule:nonzero;stroke:none"
             d="m 0,0 c 22.913,-0.001 45.825,0 68.738,-0.005 1.358,0 2.717,0.044 4.068,-0.193 0.978,-0.171 1.809,-0.573 2.063,-1.573 0.268,-1.055 -0.461,-1.726 -1.227,-2.267 -1.515,-1.069 -3.259,-1.699 -4.933,-2.45 C 51.285,-14.318 33.848,-22.12 16.42,-29.941 12.412,-31.739 8.705,-33.958 5.911,-37.473 3.484,-40.526 2.856,-44.169 2.29,-47.862 c -0.881,-5.737 0.008,-11.407 0.588,-17.085 1.057,-10.338 2.164,-20.67 3.25,-31.005 1.329,-12.639 2.663,-25.278 3.987,-37.919 0.654,-6.24 1.294,-12.483 1.923,-18.726 0.056,-0.55 0.017,-1.118 -0.037,-1.672 -0.077,-0.796 -0.359,-1.529 -1.229,-1.718 -0.83,-0.18 -1.52,0.079 -2.104,0.796 -1.299,1.593 -2.231,3.407 -3.242,5.169 -6.845,11.917 -13.671,23.845 -20.498,35.771 -6.471,11.304 -12.931,22.614 -19.406,33.915 -6.733,11.752 -13.487,23.492 -20.217,35.245 -6.789,11.857 -13.566,23.721 -20.336,35.589 -0.713,1.249 -1.378,2.529 -1.751,3.934 -0.684,2.569 0.46,4.546 3.033,5.2 1.248,0.318 2.53,0.352 3.811,0.354 C -64.579,-0.007 -59.221,0 -53.862,0 -35.908,0.002 -17.954,0.001 0,0" /></g><g
           transform="translate(278.833,189.2946)"
           id="g100"><path
             id="path102"
             style="fill:#2b9651;fill-opacity:1;fill-rule:nonzero;stroke:none"
             d="M 0,0 C 0.851,-0.001 1.676,0.065 2.443,0.46 3.683,1.097 4.306,2.185 4.18,3.47 4.062,4.666 3.231,5.595 1.949,6.002 1.289,6.212 0.615,6.219 -0.066,6.219 -7.785,6.216 -15.504,6.206 -23.223,6.229 c -1.1,0.002 -2.39,-0.32 -3.019,0.409 -0.54,0.627 -0.272,1.881 -0.37,2.947 -0.089,0.957 0.242,1.189 1.182,1.184 6.559,-0.042 13.118,-0.024 19.677,-0.021 0.56,0 1.124,-0.015 1.678,0.049 1.605,0.183 2.854,1.426 2.911,2.849 0.061,1.512 -1.081,2.856 -2.726,3.143 -0.587,0.103 -1.193,0.123 -1.79,0.124 -5.879,0.009 -11.758,-0.007 -17.637,0.017 -1.062,0.004 -2.475,-0.475 -3.085,0.224 -0.525,0.6 -0.1,1.983 -0.211,3.006 -0.107,0.994 0.297,1.168 1.2,1.163 7.759,-0.033 15.518,-0.019 23.277,-0.017 0.519,0 1.043,-0.012 1.558,0.042 1.641,0.173 2.991,1.464 3.043,2.877 0.056,1.53 -1.157,2.865 -2.888,3.127 -0.55,0.084 -1.115,0.092 -1.673,0.093 -7.599,0.005 -15.198,0.003 -22.797,0.004 -1.701,0 -1.712,0 -1.698,1.702 0.01,1.204 0.112,2.427 -0.951,3.317 -1.346,1.126 -2.846,1.399 -4.466,0.707 -1.51,-0.645 -2.128,-1.846 -2.014,-3.458 0.013,-0.198 10e-4,-0.4 10e-4,-0.6 0,-1.668 0,-1.668 -1.611,-1.668 -7.719,-0.001 -15.438,0.002 -23.157,-0.006 -0.637,0 -1.288,-0.004 -1.91,-0.126 -1.438,-0.281 -2.552,-1.48 -2.64,-2.738 -0.094,-1.355 0.738,-2.462 2.231,-3.043 0.659,-0.257 1.333,-0.227 2.008,-0.228 7.279,-0.005 14.558,0 21.837,-0.008 1.032,-0.001 2.407,0.337 3.005,-0.188 0.701,-0.614 0.12,-2.031 0.248,-3.088 0.108,-0.892 -0.195,-1.133 -1.104,-1.128 -6.679,0.041 -13.358,0.026 -20.037,0.017 -0.597,-0.001 -1.205,-0.025 -1.788,-0.14 -1.443,-0.283 -2.608,-1.544 -2.702,-2.842 -0.09,-1.271 0.848,-2.443 2.337,-2.985 0.663,-0.241 1.34,-0.194 2.014,-0.195 5.959,-0.009 11.918,0.008 17.877,-0.017 1.103,-0.005 2.574,0.197 3.206,-0.532 0.544,-0.625 0.203,-1.778 0.203,-2.826 0,-0.936 -0.207,-1.188 -1.162,-1.183 -8.558,0.04 -17.117,0.021 -25.675,0.029 -0.725,0 -1.451,-0.003 -2.124,-0.283 -1.176,-0.487 -2.04,-1.255 -2.113,-2.638 -0.065,-1.249 0.646,-2.322 1.909,-2.91 0.746,-0.348 1.533,-0.39 2.339,-0.39 z" /></g><g
           transform="translate(248.5264,175.0641)"
           id="g104"><path
             id="path106"
             style="fill:#2b9651;fill-opacity:1;fill-rule:nonzero;stroke:none"
             d="M 0,0 H 15.583 C 18.115,0 18.064,0.001 18.13,2.539 18.156,3.505 17.858,3.7 16.944,3.698 6.076,3.666 -4.792,3.678 -15.66,3.678 c -2.644,0 -2.597,-10e-4 -2.64,-2.59 -0.015,-0.938 0.296,-1.113 1.159,-1.108 C -11.427,0.018 -5.713,0 0,0 m -0.134,-9.965 h 15.837 c 2.407,0 2.333,0.003 2.435,2.437 0.048,1.136 -0.357,1.275 -1.346,1.272 -10.837,-0.033 -21.675,-0.021 -32.513,-0.021 -2.58,0 -2.542,0 -2.575,-2.564 -0.012,-0.881 0.205,-1.154 1.126,-1.146 5.678,0.044 11.358,0.022 17.036,0.022 M 0.007,9.896 c 6.276,0 12.552,-0.005 18.828,0.004 1.342,0.002 2.625,-0.212 3.803,-0.875 1.888,-1.064 2.908,-2.619 2.898,-4.86 -0.031,-6.955 -0.065,-13.911 0.009,-20.865 0.044,-4.071 -1.748,-7.042 -5.059,-9.189 -2.444,-1.584 -5.162,-2.279 -8.075,-2.173 -1.921,0.071 -3.385,1.365 -3.425,2.996 -0.039,1.629 1.349,2.936 3.31,3.1 0.915,0.077 1.836,0.12 2.706,0.452 2.109,0.804 3.106,2.353 3.126,4.607 0.007,0.788 -0.266,0.903 -0.959,0.897 -3.677,-0.031 -7.355,-0.014 -11.033,-0.014 -7.675,0 -15.35,-0.032 -23.025,0.032 -1.204,0.01 -1.445,-0.344 -1.403,-1.46 0.088,-2.356 0.041,-4.716 0.021,-7.074 -0.018,-2.214 -1.376,-3.529 -3.613,-3.543 -2.312,-0.016 -3.783,1.315 -3.786,3.516 -0.015,9.553 -0.019,19.107 0.001,28.66 0.006,3.435 2.5,5.753 6.249,5.775 6.476,0.037 12.951,0.011 19.427,0.011 z" /></g><g
           transform="translate(182.0371,159.9479)"
           id="g108"><path
             id="path110"
             style="fill:#2b9651;fill-opacity:1;fill-rule:nonzero;stroke:none"
             d="m 0,0 c 3.943,-0.107 7.343,1.396 9.601,4.816 3.214,4.87 3.531,10.134 1.045,15.378 -2.191,4.624 -6.805,6.806 -12.39,6.269 -4.261,-0.41 -8.012,-3.651 -9.286,-8.064 -0.791,-2.738 -0.829,-5.534 -0.347,-8.313 C -10.249,3.576 -6.833,-0.053 0,0 m -11.677,27.999 c 2.489,2.183 5.062,3.731 8.024,4.553 10.1,2.802 21.244,-4.433 22.743,-14.756 0.552,-3.799 0.535,-7.593 -0.619,-11.274 -2.196,-7.005 -7.093,-11.051 -14.184,-12.599 -8.741,-1.908 -17.641,2.408 -21.336,10.383 -1.103,2.381 -1.698,4.898 -1.789,7.518 -0.29,8.395 -0.449,16.795 0.027,25.184 0.349,6.156 2.46,11.656 7.169,15.827 6.581,5.829 16.996,5.913 24.234,0.365 1.761,-1.349 3.271,-2.932 4.552,-4.737 1.335,-1.881 1.051,-3.887 -0.722,-5.138 -1.872,-1.321 -3.857,-0.947 -5.15,1.034 -1.751,2.684 -3.948,4.837 -7.06,5.829 C -2.783,52.416 -9,48.687 -10.905,41.16 c -1.074,-4.245 -0.752,-8.574 -0.772,-13.161" /></g><g
           transform="translate(147.3672,185.4567)"
           id="g112"><path
             id="path114"
             style="fill:#2b9651;fill-opacity:1;fill-rule:nonzero;stroke:none"
             d="m 0,0 c 0,3.918 0.07,7.838 -0.022,11.755 -0.073,3.092 -1.014,5.97 -2.787,8.524 -4.765,6.867 -14.674,7.252 -19.88,0.758 -2.419,-3.017 -3.393,-6.574 -3.419,-10.378 -0.05,-7.076 -0.03,-14.154 -0.007,-21.231 0.01,-2.792 0.638,-5.459 1.893,-7.963 4.456,-8.886 15.607,-8.82 20.537,-2.769 2.274,2.791 3.531,5.991 3.653,9.55 C 0.102,-7.84 -0.002,-3.918 0,0 m 7.267,0.09 c 0,-4.236 -0.003,-8.473 10e-4,-12.709 0.008,-8.565 -6.836,-17.139 -16.472,-19.019 -10.378,-2.025 -20.81,4.545 -23.545,14.735 -0.415,1.548 -0.615,3.127 -0.613,4.734 0.006,8.153 -0.021,16.307 0.008,24.46 0.037,9.903 8.21,18.742 18.111,19.639 C -4.796,32.875 4.374,26.447 6.822,16.476 7.226,14.83 7.289,13.157 7.296,11.48 7.312,7.684 7.301,3.887 7.301,0.09 Z" /></g><g
           transform="translate(407.6602,149.9265)"
           id="g116"><path
             id="path118"
             style="fill:#2b9651;fill-opacity:1;fill-rule:nonzero;stroke:none"
             d="m 0,0 c -10.077,0 -20.153,0 -30.23,0.001 -0.401,0 -0.803,-0.022 -1.2,0.017 -1.813,0.176 -3.167,1.557 -3.133,3.174 0.034,1.606 1.455,2.961 3.27,3.034 1.357,0.053 2.719,0.013 4.078,0.013 7.559,0 15.116,0.014 22.674,-0.019 0.83,-0.004 1.064,0.188 1.059,1.042 -0.04,5.798 -0.039,11.596 -10e-4,17.394 0.004,0.83 -0.191,1.067 -1.045,1.061 -5.518,-0.041 -11.036,-0.021 -16.555,-0.022 -0.64,0 -1.272,0.012 -1.899,0.193 -1.623,0.469 -2.71,1.78 -2.589,3.166 0.123,1.412 1.503,2.697 3.099,2.865 0.397,0.042 0.799,0.034 1.199,0.034 14.235,0.002 28.47,0 42.707,0.007 0.97,0 1.911,-0.047 2.762,-0.592 2.033,-1.301 2.043,-3.689 0.02,-4.998 -0.841,-0.544 -1.77,-0.678 -2.744,-0.677 C 15.953,25.698 10.435,25.679 4.917,25.714 4.109,25.719 3.829,25.562 3.836,24.684 3.878,18.886 3.885,13.087 3.83,7.289 3.821,6.312 4.178,6.221 4.994,6.224 c 7.997,0.026 15.995,0.015 23.992,0.015 0.561,0 1.12,0.001 1.68,0 C 33.187,6.236 34.702,5.084 34.718,3.158 34.733,1.229 33.132,0.002 30.591,0.001 27.352,-0.001 24.113,0 20.874,0 Z" /></g><g
           transform="translate(487.2607,195.2897)"
           id="g120"><path
             id="path122"
             style="fill:#2b9651;fill-opacity:1;fill-rule:nonzero;stroke:none"
             d="m 0,0 c -2.155,0 -4.312,-0.014 -6.467,0.009 -0.553,0.005 -0.868,-0.042 -0.858,-0.746 0.038,-2.993 0.024,-5.988 0.008,-8.981 -0.003,-0.501 0.132,-0.702 0.669,-0.7 4.35,0.017 8.701,0.019 13.052,-0.002 0.588,-0.003 0.738,0.203 0.733,0.76 C 7.115,-6.707 7.101,-3.753 7.145,-0.8 7.156,-0.045 6.836,0.02 6.227,0.011 4.151,-0.019 2.075,0 0,0 m -0.068,-27.071 c 2.119,0 4.238,0.016 6.356,-0.011 0.587,-0.008 0.859,0.107 0.853,0.78 -0.033,2.998 -0.028,5.997 -0.003,8.995 0.005,0.587 -0.199,0.737 -0.759,0.735 -4.278,-0.02 -8.557,-0.023 -12.834,0.002 -0.641,0.004 -0.814,-0.21 -0.808,-0.827 0.027,-2.918 0.037,-5.837 -0.006,-8.755 -0.01,-0.762 0.245,-0.949 0.963,-0.934 2.078,0.042 4.159,0.015 6.238,0.015 m -14.603,13.554 c 0,4.639 -0.004,9.278 0.002,13.916 0.005,3.284 2.268,5.764 5.553,5.809 6.037,0.083 12.076,0.085 18.113,0.002 3.277,-0.045 5.638,-2.614 5.652,-5.903 0.017,-3.959 0.004,-7.918 0.004,-11.877 0,-5.228 0.006,-10.456 -0.002,-15.685 -0.005,-3.437 -2.117,-5.811 -5.564,-5.875 -6.036,-0.113 -12.076,-0.115 -18.112,-0.011 -3.503,0.061 -5.643,2.46 -5.645,5.95 -0.003,4.558 -10e-4,9.117 -10e-4,13.674" /></g><g
           transform="translate(518.4053,187.0983)"
           id="g124"><path
             id="path126"
             style="fill:#2b9651;fill-opacity:1;fill-rule:nonzero;stroke:none"
             d="m 0,0 v -23.266 c 0,-7.212 -3.492,-12.053 -10.351,-14.335 -1.831,-0.609 -3.726,-0.869 -5.648,-0.943 -0.395,-0.016 -0.799,0.027 -1.188,0.102 -1.809,0.345 -2.939,1.608 -2.847,3.15 0.092,1.547 1.495,2.839 3.268,2.905 1.408,0.053 2.78,0.21 4.103,0.715 3.508,1.338 5.244,3.837 5.244,7.572 0,15.951 -0.011,31.901 0.025,47.851 0.002,1.038 -0.222,1.321 -1.296,1.315 -9.514,-0.047 -19.029,-0.03 -28.543,-0.021 -0.637,0 -1.283,0.028 -1.908,0.136 -1.822,0.312 -2.971,1.571 -2.892,3.101 0.074,1.44 1.492,2.76 3.157,2.929 0.277,0.027 0.56,0.022 0.839,0.022 10.514,0.001 21.027,-0.004 31.542,0.006 1.179,0.002 2.314,-0.157 3.35,-0.729 1.995,-1.102 3.17,-2.677 3.16,-5.086 C -0.022,16.949 0,8.475 0,0" /></g><g
           transform="translate(404.7139,213.739)"
           id="g128"><path
             id="path130"
             style="fill:#2b9651;fill-opacity:1;fill-rule:nonzero;stroke:none"
             d="M 0,0 C -0.758,1.641 -1.454,3.107 -2.113,4.591 -3.011,6.611 -2.161,8.357 -0.026,8.938 2.108,9.518 3.963,8.665 4.91,6.655 5.794,4.781 6.713,2.922 7.523,1.017 7.855,0.237 8.26,-0.026 9.112,-0.021 c 6.719,0.038 13.438,0.019 20.157,0.022 1.762,0 3.417,-0.358 4.809,-1.511 1.232,-1.018 1.896,-2.265 1.831,-3.953 -0.096,-2.556 -0.021,-5.117 -0.029,-7.677 -0.008,-2.161 -1.504,-3.599 -3.737,-3.626 -1.91,-0.022 -3.874,1.388 -3.71,3.634 0.138,1.91 -0.024,3.84 0.05,5.756 0.036,0.928 -0.21,1.186 -1.164,1.181 -8.598,-0.041 -17.197,-0.024 -25.796,-0.024 -7.677,0 -15.356,-0.016 -23.035,0.022 -0.892,0.004 -1.159,-0.206 -1.126,-1.117 0.074,-2.038 0.039,-4.08 0.017,-6.119 -0.021,-1.906 -1.458,-3.259 -3.485,-3.329 -2.111,-0.073 -3.861,1.295 -3.907,3.206 -0.066,2.797 -0.099,5.602 0.009,8.397 0.119,3.071 2.782,5.139 6.511,5.151 7.279,0.023 14.557,0.007 21.836,0.008 z" /></g><g
           transform="translate(440.6211,184.5622)"
           id="g132"><path
             id="path134"
             style="fill:#2b9651;fill-opacity:1;fill-rule:nonzero;stroke:none"
             d="m 0,0 c 0.005,-2.247 -3.381,-3.769 -5.712,-2.396 -0.474,0.279 -0.89,0.676 -1.281,1.07 -5.184,5.21 -11.167,9.244 -17.883,12.211 -2.196,0.97 -3.109,2.508 -2.459,4.117 0.697,1.726 3.11,2.544 5.146,1.706 6.058,-2.493 11.596,-5.844 16.581,-10.102 C -3.967,5.203 -2.409,3.711 -0.918,2.15 -0.379,1.587 0.029,0.966 0,0" /></g><g
           transform="translate(378.4541,181.8337)"
           id="g136"><path
             id="path138"
             style="fill:#2b9651;fill-opacity:1;fill-rule:nonzero;stroke:none"
             d="m 0,0 c -0.995,-0.038 -1.84,0.284 -2.581,0.874 -1.513,1.204 -1.541,3.075 -0.029,4.297 0.456,0.369 1.016,0.624 1.555,0.872 6.731,3.099 12.863,7.062 18.082,12.373 1.652,1.68 3.736,1.89 5.396,0.64 1.743,-1.314 1.891,-2.903 0.38,-4.459 C 17.916,9.562 12.27,5.562 6.031,2.383 4.683,1.695 3.301,1.074 1.932,0.428 1.312,0.135 0.666,-0.062 0,0" /></g><g
           transform="translate(472.8965,206.1677)"
           id="g140"><path
             id="path142"
             style="fill:#2b9651;fill-opacity:1;fill-rule:nonzero;stroke:none"
             d="m 0,0 c -1.325,0.07 -2.398,0.396 -3.255,1.412 -2.959,3.511 -5.974,6.973 -8.96,10.461 -1.009,1.178 -0.959,2.548 0.101,3.649 1.491,1.549 4.274,1.575 5.692,-0.038 C -3.284,11.916 -0.174,8.324 2.901,4.703 4.336,3.014 3.48,0.81 1.209,0.187 0.789,0.073 0.344,0.052 0,0" /></g></g></g></g></svg>