<svg width="216" height="51" viewBox="0 0 216 51" fill="none" xmlns="http://www.w3.org/2000/svg">
<path d="M37.8346 38.0489C34.581 41.244 30.1391 43.2117 25.2296 43.2117C15.2936 43.2117 7.22797 35.146 7.22797 25.2101C7.22797 15.2741 15.2936 7.20844 25.2296 7.20844C30.1391 7.20844 34.6005 9.17615 37.8346 12.3712C39.9971 10.9685 42.5298 10.0723 45.2573 9.91648C40.64 3.89646 33.3926 0 25.2101 0C11.2802 0 0 11.2997 0 25.2101C0 39.1204 11.2997 50.4201 25.2101 50.4201C33.3731 50.4201 40.64 46.5432 45.2573 40.5037C42.5298 40.3478 39.9971 39.4516 37.8346 38.0489Z" fill="#1E2F3D"/>
<path d="M46.212 34.2693C51.2261 34.2693 55.2907 30.2046 55.2907 25.1906C55.2907 20.1765 51.2261 16.1118 46.212 16.1118C41.198 16.1118 37.1332 20.1765 37.1332 25.1906C37.1332 30.2046 41.198 34.2693 46.212 34.2693Z" fill="#1E2F3D"/>
<path d="M82.2542 31.7172C81.2801 33.8797 79.8774 34.9318 77.9486 34.9318C77.1498 34.9318 76.4485 34.7564 75.864 34.4058C75.2795 34.1135 74.812 33.7239 74.4418 33.2368C74.0132 32.7498 73.721 32.0874 73.5651 31.2886C73.3898 30.4509 73.3118 28.8143 73.3118 26.418C73.3118 24.0217 73.3898 22.3657 73.5651 21.5085C73.7015 20.7292 73.9937 20.0863 74.4418 19.5797C74.7925 19.1122 75.2795 18.703 75.864 18.3913C76.429 18.0796 77.1303 17.9237 77.9291 17.9043C79.0201 17.9237 79.9552 18.2549 80.6956 18.8589C81.4359 19.5213 81.9425 20.3396 82.2152 21.2747L82.2736 21.4695H86.6377L86.5792 21.1383C86.1896 19.0342 85.2349 17.2419 83.7543 15.8002C82.2542 14.378 80.3059 13.6376 77.9291 13.6182C76.0004 13.6376 74.3639 14.1247 73.078 15.0599C71.7727 15.9755 70.7985 17.0276 70.2141 18.1965C69.8439 18.8199 69.5517 19.6382 69.3764 20.6513C69.201 21.6449 69.1231 23.5346 69.1231 26.4375C69.1231 29.3014 69.201 31.1912 69.3764 32.2043C69.4738 32.7498 69.5712 33.2173 69.727 33.5875C69.8634 33.9187 70.0387 34.2889 70.2141 34.6785C70.818 35.8474 71.7727 36.8995 73.078 37.7957C74.3639 38.7308 76.0004 39.2179 77.9291 39.2763C80.0527 39.2763 81.9229 38.6334 83.501 37.3865C85.0206 36.1202 86.0532 34.3083 86.5987 31.9705L86.6766 31.6393H82.3126L82.2542 31.7172Z" fill="#1E2F3D"/>
<path d="M95.7943 32.6715L91.9369 20.8848H87.7288L93.9241 38.0292L93.0084 40.8931C92.872 41.3412 92.6383 41.6724 92.3265 41.8867C91.9954 42.101 91.6252 42.2179 91.2355 42.2179H89.9692V46.0754H91.3719C92.4824 46.0754 93.476 45.8221 94.3722 45.3155C95.2489 44.77 95.9502 43.8154 96.4373 42.4322L103.88 20.8848H99.6713L95.7943 32.6715Z" fill="#1E2F3D"/>
<path d="M117.108 33.412C116.29 34.5419 115.238 35.1069 113.874 35.1264C112.686 35.1459 111.731 34.8342 111.068 34.1912C110.211 33.3535 109.763 31.9313 109.744 29.9636C109.763 27.9764 110.211 26.5347 111.088 25.6775C111.75 25.0346 112.705 24.7034 113.893 24.7229C115.257 24.7618 116.329 25.3268 117.127 26.4568L117.303 26.7101L120.245 24.0215L120.089 23.8267C119.329 22.872 118.413 22.1122 117.381 21.5473C116.348 20.9823 115.121 20.69 113.777 20.6706C111.711 20.6511 109.861 21.3719 108.302 22.8136C106.685 24.2943 105.828 26.6906 105.789 29.9636C105.828 33.1782 106.685 35.555 108.302 37.0162C109.861 38.4579 111.711 39.1982 113.777 39.1982C115.14 39.1787 116.348 38.867 117.4 38.2825C118.433 37.7175 119.329 36.9772 120.108 36.081L120.284 35.8862L117.342 33.1782L117.108 33.412Z" fill="#1E2F3D"/>
<path d="M127.784 34.1916V13.7742H123.829V34.4643C123.829 36.0814 124.297 37.2698 125.213 37.9712C126.07 38.653 127.161 38.9842 128.466 38.9842H130.258V35.1267H128.797C128.076 35.1267 127.784 34.854 127.784 34.1916Z" fill="#1E2F3D"/>
<path d="M140.565 20.6511C139.727 20.6511 138.87 20.807 138.012 21.1187C137.136 21.4304 136.337 21.9564 135.636 22.6773C134.954 23.3786 134.369 24.3528 133.941 25.5412C133.512 26.7101 133.278 28.2102 133.278 29.9637C133.278 31.795 133.531 33.3146 134.038 34.4641C134.506 35.672 135.11 36.6266 135.869 37.3085C136.259 37.6397 136.668 37.9124 137.097 38.1267C137.525 38.38 137.954 38.5943 138.402 38.7502C139.298 39.0424 140.253 39.1788 141.188 39.1788C143.565 39.1788 145.669 38.1852 147.442 36.2564L147.637 36.0421L144.753 33.5094L144.578 33.7042C143.545 34.7758 142.357 35.3213 141.052 35.3213C139.922 35.3213 139.045 34.9901 138.363 34.2692C137.681 33.6458 137.331 32.7107 137.272 31.5222H147.871V28.3466C147.851 25.9698 147.111 24.08 145.708 22.6968C144.305 21.372 142.571 20.6901 140.565 20.6511ZM143.877 28.0934H137.272C137.37 26.9439 137.701 26.0477 138.246 25.4438C138.85 24.8203 139.61 24.5281 140.584 24.5281C141.539 24.5281 142.299 24.8203 142.922 25.4438C143.467 26.0477 143.799 26.9244 143.877 28.0934Z" fill="#1E2F3D"/>
<path d="M166.983 13.7742H162.833V38.9842H178.633V34.9124H166.983V13.7742Z" fill="#1E2F3D"/>
<path d="M193.985 21.9564C192.66 21.0797 190.887 20.6316 188.705 20.6511C186.095 20.6122 184.088 21.5083 182.744 23.3202L182.588 23.5345L185.725 26.0087L185.88 25.736C186.153 25.2684 186.504 24.9567 186.952 24.7619C187.42 24.5865 188.062 24.5086 188.881 24.5086C190.205 24.4891 191.141 24.7229 191.628 25.21C191.939 25.5217 192.095 25.9308 192.076 26.4958V28.0739H187.614C185.725 28.0934 184.283 28.6389 183.289 29.6714C182.296 30.6845 181.809 31.9898 181.809 33.5289C181.809 35.1459 182.393 36.4902 183.504 37.5228C184.575 38.5748 186.114 39.1398 188.082 39.1593C189.27 39.1593 190.225 39.0034 190.907 38.6917C191.374 38.4969 191.764 38.2241 192.056 37.8929V38.945H196.011V26.6711C196.031 24.4891 195.349 22.8916 193.985 21.9564ZM192.095 31.5417V32.5353C192.095 33.7627 191.861 34.5225 191.413 34.8342C190.868 35.1849 189.894 35.3408 188.53 35.3213C187.478 35.3213 186.718 35.107 186.251 34.6978C185.802 34.3277 185.588 33.8991 185.588 33.373C185.588 32.925 185.549 31.6002 188.277 31.5417H192.095Z" fill="#1E2F3D"/>
<path d="M214.734 23.0672C213.721 21.5281 212.123 20.7098 209.941 20.6514C209.025 20.6514 208.188 20.8462 207.467 21.2358C206.882 21.5476 206.337 21.9177 205.83 22.3658V13.7546H201.875V38.9647H205.83V37.5425C206.941 38.5751 208.324 39.1206 209.941 39.179C211.032 39.1595 212.006 38.9257 212.786 38.4971C213.584 38.0685 214.247 37.5035 214.714 36.8022C215.221 36.2177 215.552 35.4189 215.747 34.4253C215.922 33.5097 216 31.99 216 29.9054C216 27.7819 215.922 26.2623 215.747 25.3466C215.571 24.4309 215.221 23.6516 214.734 23.0672ZM212.045 29.9054C212.045 30.5678 212.026 31.2108 212.006 31.8342C211.928 32.4771 211.792 33.0616 211.578 33.5681C211.402 34.0357 211.11 34.4059 210.681 34.6981C210.253 34.9903 209.668 35.1267 208.908 35.1267C208.207 35.1267 207.662 34.9708 207.252 34.6591C206.824 34.3669 206.512 33.9772 206.317 33.4902C206.123 32.9836 205.986 32.4187 205.928 31.7757C205.869 31.1328 205.83 30.5094 205.83 29.9054C205.83 29.243 205.869 28.6001 205.928 27.9767C205.986 27.3728 206.123 26.8272 206.317 26.3207C206.512 25.8337 206.824 25.444 207.252 25.1518C207.642 24.8595 208.207 24.7037 208.908 24.7037C209.668 24.7037 210.253 24.8401 210.681 25.0738C211.11 25.3466 211.402 25.7168 211.578 26.2038C211.792 26.7104 211.928 27.2753 212.006 27.8403C212.026 28.5417 212.045 29.2236 212.045 29.9054Z" fill="#1E2F3D"/>
</svg>
