<svg width="192" height="60" viewBox="0 0 192 60" fill="none" xmlns="http://www.w3.org/2000/svg">
<g clip-path="url(#clip0_355_2)">
<path d="M192 0H0V60H192V0Z" fill="black"/>
<path d="M40.6944 38.9795C38.413 41.2162 35.3061 42.5842 31.8733 42.5842C24.9207 42.5842 19.2934 36.9599 19.2934 30.0109C19.2934 23.062 24.9207 17.4376 31.8733 17.4376C35.3061 17.4376 38.413 18.8057 40.6944 21.0424C42.2152 20.0652 43.9751 19.4355 45.8871 19.3269C42.6498 15.0924 37.5874 12.3779 31.8733 12.3779C22.1396 12.3779 14.2528 20.2607 14.2528 29.9892C14.2528 39.7178 22.1396 47.6005 31.8733 47.6005C37.5874 47.6005 42.6498 44.8861 45.8871 40.6733C43.9751 40.5647 42.1935 39.9566 40.6944 38.9795Z" fill="#FCD535"/>
<path d="M46.5389 36.3301C50.0427 36.3301 52.8831 33.4911 52.8831 29.9891C52.8831 26.4871 50.0427 23.6482 46.5389 23.6482C43.0351 23.6482 40.1946 26.4871 40.1946 29.9891C40.1946 33.4911 43.0351 36.3301 46.5389 36.3301Z" fill="#FCD535"/>
<path d="M74.9358 34.7448C74.5665 36.3735 73.8495 37.6113 72.8066 38.5016C71.7203 39.3702 70.4384 39.8045 68.961 39.8045C67.6139 39.7828 66.5058 39.4354 65.615 38.7839C64.7025 38.1759 64.0507 37.4592 63.6379 36.6341C63.5075 36.3735 63.3989 36.1129 63.2902 35.874C63.2033 35.6351 63.1164 35.3094 63.0513 34.9402C62.9426 34.2236 62.8774 32.8773 62.8774 30.8794C62.8774 28.8382 62.9426 27.4701 63.0513 26.7969C63.1816 26.102 63.3554 25.5591 63.6162 25.1248C64.029 24.3214 64.6808 23.583 65.5933 22.9533C66.4841 22.3018 67.6139 21.9761 68.9392 21.9761C70.5905 21.9978 71.9158 22.4972 72.9587 23.4744C74.0016 24.4734 74.6534 25.6894 74.9141 27.1661H72.1765C71.9593 26.4495 71.5899 25.8632 71.025 25.3637C70.4384 24.886 69.7431 24.6471 68.9175 24.6254C68.3091 24.6471 67.7877 24.7557 67.3532 24.9945C66.9186 25.2334 66.5493 25.5374 66.2886 25.9066C65.9627 26.2757 65.7237 26.7752 65.615 27.3615C65.4847 27.9913 65.4195 29.1639 65.4195 30.9012C65.4195 32.6384 65.4847 33.811 65.615 34.4191C65.7237 35.0271 65.9409 35.5266 66.2886 35.8957C66.571 36.2649 66.9186 36.5472 67.3749 36.7861C67.8094 37.0467 68.3309 37.1769 68.9392 37.1769C70.3949 37.1769 71.4813 36.3735 72.1982 34.7665H74.9358V34.7448Z" fill="#FCD535"/>
<path d="M75.9353 27.166H78.5208L81.3887 35.9174H81.4322L84.2784 27.166H86.8639L81.6494 42.2583C81.3235 43.1921 80.8455 43.8435 80.2589 44.2127C79.6506 44.5602 78.977 44.7339 78.2383 44.7339H77.4344V42.3452H78.1514C78.4773 42.3452 78.7598 42.2583 79.0422 42.0846C79.3247 41.8891 79.4985 41.6286 79.6071 41.2594L80.2806 39.153L75.9353 27.166Z" fill="#FCD535"/>
<path d="M98.2487 37.633C97.7273 38.2627 97.0972 38.7622 96.3802 39.1531C95.6632 39.5657 94.8376 39.7611 93.9034 39.7828C92.4694 39.7828 91.231 39.2834 90.1446 38.2844C89.0365 37.2855 88.4499 35.6569 88.4282 33.3985C88.4499 31.1183 89.0365 29.4897 90.1446 28.469C91.231 27.4701 92.4694 26.9707 93.9034 26.9924C94.8376 27.0141 95.6632 27.2095 96.3802 27.6004C97.0972 27.9913 97.7273 28.5125 98.2487 29.1639L96.4454 30.8143C95.837 29.9674 95.0114 29.5331 93.9903 29.4897C91.9262 29.4679 90.8616 30.7709 90.8399 33.3985C90.8616 36.026 91.9262 37.3073 93.9903 37.2855C95.0114 37.2638 95.837 36.8295 96.4454 35.9826L98.2487 37.633Z" fill="#FCD535"/>
<path d="M101.008 22.1064H103.441V36.4387C103.441 37.0033 103.746 37.2856 104.354 37.2856H105.201V39.6526H104.115C103.224 39.6526 102.507 39.4354 101.921 38.9794C101.312 38.5234 101.008 37.7416 101.008 36.6341V22.1064Z" fill="#FCD535"/>
<path d="M109.916 34.354C109.916 35.3529 110.198 36.113 110.763 36.6341C111.285 37.1553 111.98 37.4376 112.827 37.4376C113.805 37.4376 114.696 37.025 115.478 36.2215L117.238 37.7851C116 39.1531 114.544 39.8263 112.871 39.8046C112.241 39.8046 111.611 39.7177 111.002 39.5223C110.698 39.4137 110.394 39.2834 110.112 39.1097C109.807 38.9577 109.525 38.7623 109.264 38.5451C108.743 38.0891 108.33 37.4376 108.026 36.5907C107.678 35.7872 107.504 34.7449 107.504 33.4637C107.504 32.2259 107.656 31.2053 107.961 30.3801C108.265 29.5549 108.656 28.8817 109.134 28.404C109.612 27.9045 110.155 27.557 110.763 27.3399C111.35 27.1227 111.937 27.0142 112.523 27.0142C113.914 27.0359 115.087 27.4919 116.043 28.4257C117.021 29.3594 117.499 30.6624 117.52 32.3127V34.3757H109.916V34.354ZM115.022 32.291C115 31.3138 114.739 30.5755 114.261 30.0761C113.783 29.5983 113.197 29.3594 112.458 29.3594C111.719 29.3594 111.133 29.5983 110.655 30.0761C110.198 30.5755 109.938 31.3138 109.894 32.291H115.022Z" fill="#FCD535"/>
<path d="M127.971 22.1064H130.556V37.1553H138.856V39.6526H127.993V22.1064H127.971Z" fill="#FCD535"/>
<path d="M148.546 38.545H148.503C148.286 38.9793 147.938 39.2833 147.46 39.4787C147.004 39.6959 146.352 39.7827 145.526 39.7827C144.179 39.761 143.136 39.3919 142.398 38.6752C141.637 37.9586 141.246 37.0683 141.246 35.9608C141.246 34.9185 141.572 34.0498 142.246 33.3549C142.919 32.6383 143.897 32.2909 145.179 32.2692H148.546V30.9445C148.568 29.837 147.742 29.2941 146.069 29.3376C145.461 29.3376 144.983 29.4027 144.636 29.533C144.266 29.685 143.984 29.9456 143.766 30.3148L141.854 28.8164C142.789 27.5786 144.136 26.9706 145.939 26.9923C147.46 26.9706 148.677 27.2746 149.589 27.8826C150.502 28.5124 150.958 29.5764 150.98 31.1182V39.6524H148.546V38.545ZM148.546 34.3539H145.635C144.223 34.3756 143.506 34.8967 143.527 35.8522C143.527 36.2865 143.701 36.634 144.071 36.938C144.418 37.2637 145.005 37.4375 145.809 37.4375C146.83 37.4592 147.547 37.3289 147.981 37.0683C148.373 36.8077 148.546 36.1997 148.546 35.2659V34.3539Z" fill="#FCD535"/>
<path d="M155.238 22.1064H157.672V28.4908C158.106 28.0565 158.606 27.6873 159.127 27.405C159.627 27.1444 160.17 27.0142 160.8 27.0142C162.278 27.0576 163.364 27.6005 164.059 28.6428C164.385 29.0337 164.624 29.5549 164.755 30.2063C164.863 30.8361 164.928 31.9001 164.928 33.3985C164.928 34.8752 164.863 35.9392 164.755 36.569C164.624 37.2422 164.407 37.7851 164.059 38.1759C163.733 38.6537 163.277 39.0446 162.734 39.3269C162.191 39.6309 161.561 39.7829 160.8 39.8046C159.518 39.7829 158.475 39.2834 157.672 38.3497V39.6526H155.238V22.1064ZM160.062 29.5114C159.518 29.5114 159.084 29.62 158.758 29.8589C158.432 30.0978 158.171 30.4018 158.019 30.7709C157.867 31.1401 157.78 31.5527 157.737 32.0087C157.693 32.443 157.672 32.9208 157.672 33.3985C157.672 33.8328 157.693 34.2889 157.737 34.7449C157.78 35.2226 157.889 35.6352 158.019 36.0044C158.171 36.3735 158.41 36.6993 158.758 36.9164C159.084 37.1553 159.518 37.2856 160.062 37.2856C160.626 37.2856 161.083 37.177 161.43 36.9382C161.756 36.6993 161.995 36.417 162.147 36.0478C162.299 35.6787 162.408 35.2443 162.473 34.7666C162.495 34.3106 162.495 33.8545 162.495 33.3768C162.495 32.8773 162.495 32.3996 162.473 31.9219C162.408 31.4876 162.321 31.075 162.147 30.6841C162.017 30.3149 161.778 30.0109 161.43 29.7937C161.104 29.5983 160.648 29.5114 160.062 29.5114Z" fill="#FCD535"/>
<path d="M169.122 35.8307C170.121 36.8947 171.381 37.4376 172.967 37.4376C173.663 37.4376 174.249 37.3073 174.684 37.025C175.118 36.7427 175.357 36.3518 175.357 35.8524C175.357 35.3964 175.227 35.0923 174.966 34.9186C174.684 34.7232 174.336 34.6363 173.88 34.6146L171.729 34.4192C170.708 34.3323 169.882 33.9631 169.23 33.3551C168.578 32.7688 168.231 31.9219 168.231 30.8578C168.253 29.5766 168.687 28.6211 169.556 27.9696C170.404 27.3182 171.468 27.0142 172.75 27.0142C173.315 27.0142 173.815 27.0576 174.249 27.1227C174.684 27.2096 175.118 27.3182 175.488 27.4702C176.226 27.7742 176.9 28.2085 177.486 28.7297L175.987 30.5321C175.509 30.1846 175.031 29.9023 174.51 29.6635C173.988 29.468 173.402 29.3594 172.728 29.3594C171.968 29.3594 171.425 29.4897 171.121 29.772C170.795 30.0543 170.643 30.4235 170.643 30.8578C170.621 31.1401 170.751 31.379 171.012 31.5961C171.251 31.835 171.664 31.987 172.25 32.0522L174.271 32.2042C175.531 32.291 176.444 32.7036 177.008 33.3768C177.53 34.05 177.791 34.9186 177.791 35.9392C177.769 37.1553 177.291 38.0891 176.357 38.7405C175.422 39.4137 174.227 39.7612 172.772 39.7829C170.795 39.7829 169.013 39.0446 167.449 37.5462L169.122 35.8307Z" fill="#FCD535"/>
</g>
<defs>
<clipPath id="clip0_355_2">
<rect width="192" height="60" fill="white"/>
</clipPath>
</defs>
</svg>
