<svg width="101" height="41" viewBox="0 0 101 41" fill="none" xmlns="http://www.w3.org/2000/svg">
<path fill-rule="evenodd" clip-rule="evenodd" d="M8.52807 0.689453H100.222V32.3554L91.8855 40.6895H0.19165V9.02353L8.52807 0.689453Z" fill="black"/>
<path d="M0.19165 9.02344H92.0704V40.5045H0.19165V9.02344Z" fill="black"/>
<path d="M4.36101 13.1895V36.3387H13.6219V34.0236H15.9377V15.5046H13.6219V13.1895H4.36101ZM11.3061 17.8198V31.7084H8.99034V17.8198H11.3061ZM22.8738 36.3387V27.0781H25.1896V36.3387H29.8212V13.1895H18.2445V36.3387H22.8738ZM22.8738 22.4478V17.8175H25.1896V22.4478H22.8738ZM32.128 13.1895V36.3387H43.7047V13.1895H32.128ZM39.0731 17.8198V31.7084H36.7573V17.8198H39.0731Z" fill="white"/>
<path d="M46.2054 13.1893V36.3385H53.1528V31.7082H50.837V13.1893H46.2054ZM60.0619 13.1893V36.3385H55.4303V13.1893H60.0619ZM62.4408 13.1893V36.3385H67.0724V17.8196H69.3882V36.3385H74.0198V13.1893H62.4408ZM76.3266 13.1893V36.3385H80.9582V27.0779H83.2739V36.3385H87.9055V27.0779H85.5897V22.4476H87.9055V13.187H83.2717V22.4454H80.9559V13.187H76.3266V13.1893Z" fill="#32E3A4"/>
</svg>
