<svg xmlns="http://www.w3.org/2000/svg" width="240" height="96" fill="none" viewBox="0 0 240 96">
  <path fill="#000" fill-rule="evenodd" d="M20 0h220v76l-20 20H0V20L20 0Z" clip-rule="evenodd"/>
  <path fill="#000" d="M0 20h220.444v75.556H0z"/>
  <path fill="#fff" d="M10 30v55.556h22.222V80h5.556V35.556h-5.556V30H10Zm16.667 11.111v33.333H21.11V41.111h5.556Zm27.756 44.445V63.333h5.555v22.223H71.09V30H43.312v55.556h11.11Zm0-33.334v-11.11h5.555v11.11h-5.555ZM76.623 30v55.556h27.778V30H76.623ZM93.29 41.111v33.333h-5.556V41.111h5.556Z"/>
  <path fill="#32E3A4" d="M110.401 30v55.556h16.667V74.444h-5.556V30h-11.111Zm33.244 0v55.556h-11.111V30h11.111Zm5.71 0v55.556h11.111V41.11h5.556v44.445h11.111V30h-27.778Zm33.312 0v55.556h11.111V63.333h5.555v22.223h11.111V63.333h-5.555v-11.11h5.555V30h-11.111v22.222h-5.555V30h-11.111Z"/>
</svg>
