<svg width="1440" height="1024" viewBox="0 0 1440 1024" fill="none" xmlns="http://www.w3.org/2000/svg">
<path d="M326.606 753.427C313.972 753.427 304.033 748.535 296.792 738.751C289.627 728.967 286.045 715.485 286.045 698.305C286.045 686.055 287.123 675.886 289.28 667.797C291.514 659.708 294.596 652.967 298.525 647.574C302.454 642.181 306.961 637.482 312.046 633.475L311.121 631.164C307.885 623.152 305.035 615.525 302.57 608.283C300.181 600.965 298.987 593.453 298.987 585.749C298.987 577.968 300.644 571.073 303.956 565.064C307.269 559.055 311.853 554.355 317.708 550.966C323.64 547.499 330.42 545.765 338.047 545.765C345.597 545.765 352.453 547.422 358.616 550.734C364.857 553.97 369.826 558.862 373.524 565.411C377.221 571.959 379.07 580.241 379.07 590.256C379.07 601.119 377.029 610.209 372.946 617.528C368.94 624.847 362.892 631.896 354.803 638.676L365.897 666.641C370.442 655.162 376.99 646.264 385.542 639.947L401.605 665.023C392.668 672.188 385.195 683.86 379.186 700.038L399.525 751H360.234L355.727 740.022C352.723 743.72 348.678 746.878 343.594 749.498C338.586 752.117 332.923 753.427 326.606 753.427ZM335.273 582.167C335.273 584.17 335.774 587.136 336.775 591.065C337.777 594.917 340.127 601.619 343.825 611.172C345.288 609.632 346.598 607.205 347.754 603.892C348.909 600.579 349.487 596.034 349.487 590.256C349.487 584.324 348.755 580.164 347.291 577.776C345.905 575.387 344.056 574.193 341.745 574.193C339.51 574.193 337.854 575.041 336.775 576.735C335.774 578.353 335.273 580.164 335.273 582.167ZM321.406 703.274C321.406 716.987 325.296 723.843 333.078 723.843C336.236 723.843 338.778 722.688 340.705 720.377C342.631 717.988 343.94 715.523 344.634 712.981L325.219 665.717C322.677 671.109 321.406 680.547 321.406 694.029V703.274Z" fill="black"/>
<path d="M304.76 523V325.344H359.115C373.34 325.344 384.047 329.312 391.234 337.248C398.422 345.109 402.016 356.639 402.016 371.838V464.377C402.016 483.094 398.721 497.544 392.133 507.727C385.619 517.909 374.164 523 357.768 523H304.76ZM344.516 488.073H351.366C358.629 488.073 362.26 484.554 362.26 477.517V375.544C362.26 368.955 361.361 364.725 359.564 362.854C357.842 360.907 354.286 359.934 348.896 359.934H344.516V488.073ZM464.682 524.797C452.702 524.797 443.157 522.551 436.044 518.059C428.931 513.566 423.84 507.09 420.771 498.63C417.701 490.17 416.166 479.987 416.166 468.083V400.363C416.166 384.715 420.658 372.886 429.643 364.875C438.627 356.789 450.98 352.746 466.703 352.746C499.047 352.746 515.219 368.618 515.219 400.363V412.604C515.219 427.429 515.069 437.386 514.77 442.478H456.371V475.046C456.371 478.041 456.558 480.998 456.933 483.918C457.307 486.763 458.131 489.121 459.403 490.993C460.751 492.865 462.885 493.801 465.805 493.801C469.997 493.801 472.618 492.004 473.666 488.41C474.714 484.742 475.238 479.987 475.238 474.147V457.976H515.219V467.521C515.219 480.1 513.646 490.656 510.502 499.191C507.432 507.652 502.191 514.053 494.779 518.396C487.442 522.663 477.41 524.797 464.682 524.797ZM456.146 422.487H475.238V399.802C475.238 393.737 474.49 389.395 472.992 386.774C471.495 384.079 469.249 382.731 466.254 382.731C463.035 382.731 460.526 384.004 458.729 386.55C457.007 389.095 456.146 393.513 456.146 399.802V422.487Z" fill="#774FF8"/>
<path d="M577.436 524.797C559.392 524.797 546.365 520.305 538.354 511.32C530.417 502.336 526.449 488.036 526.449 468.42V449.104H565.531V473.811C565.531 478.378 566.205 481.971 567.553 484.592C568.975 487.137 571.409 488.41 574.853 488.41C578.446 488.41 580.917 487.362 582.265 485.266C583.687 483.169 584.398 479.725 584.398 474.934C584.398 468.869 583.799 463.815 582.602 459.772C581.404 455.655 579.307 451.761 576.312 448.093C573.393 444.349 569.312 440.007 564.071 435.065L546.327 418.22C533.075 405.716 526.449 391.416 526.449 375.319C526.449 358.474 530.342 345.633 538.129 336.799C545.99 327.964 557.333 323.547 572.157 323.547C590.276 323.547 603.116 328.376 610.678 338.034C618.314 347.692 622.133 362.367 622.133 382.058H581.928V368.469C581.928 365.773 581.142 363.677 579.569 362.18C578.072 360.682 576.013 359.934 573.393 359.934C570.248 359.934 567.927 360.832 566.43 362.629C565.007 364.351 564.296 366.597 564.296 369.367C564.296 372.137 565.045 375.132 566.542 378.352C568.039 381.571 570.997 385.277 575.414 389.47L598.212 411.369C602.779 415.712 606.972 420.316 610.79 425.183C614.608 429.974 617.678 435.59 619.999 442.028C622.32 448.392 623.48 456.179 623.48 465.388C623.48 483.955 620.036 498.518 613.148 509.074C606.335 519.556 594.431 524.797 577.436 524.797ZM686.708 524.797C667.841 524.797 654.439 519.968 646.503 510.31C638.642 500.651 634.711 486.464 634.711 467.746V415.861C634.711 401.786 636.208 390.069 639.203 380.71C642.198 371.351 647.439 364.351 654.926 359.709C662.413 355.067 672.82 352.746 686.146 352.746C695.43 352.746 703.741 354.393 711.078 357.688C718.49 360.982 724.33 365.811 728.598 372.175C732.865 378.539 734.999 386.325 734.999 395.534V421.252H694.008V397.668C694.008 393.775 693.446 390.518 692.323 387.897C691.2 385.202 688.767 383.854 685.023 383.854C678.435 383.854 675.141 388.534 675.141 397.893V479.538C675.141 482.982 675.889 486.164 677.387 489.084C678.884 491.929 681.355 493.352 684.799 493.352C688.318 493.352 690.751 491.966 692.099 489.196C693.521 486.351 694.232 483.057 694.232 479.313V451.013H734.999V480.437C734.999 489.72 732.903 497.694 728.71 504.357C724.592 510.946 718.902 516 711.64 519.519C704.377 523.037 696.067 524.797 686.708 524.797ZM749.037 523V325.344H790.365V371.276C792.536 364.987 795.868 360.345 800.36 357.351C804.853 354.281 810.093 352.746 816.083 352.746C827.763 352.746 836.26 356.415 841.576 363.752C846.892 371.089 849.55 380.935 849.55 393.288V523H808.896V395.871C808.896 392.202 808.109 389.208 806.537 386.887C805.04 384.566 802.644 383.405 799.35 383.405C796.579 383.405 794.371 384.603 792.724 386.999C791.151 389.395 790.365 392.24 790.365 395.534V523H749.037ZM914.35 524.797C880.808 524.797 864.037 507.39 864.037 472.575V404.968C864.037 389.095 868.492 376.442 877.401 367.009C886.311 357.5 898.627 352.746 914.35 352.746C930.147 352.746 942.501 357.5 951.41 367.009C960.32 376.442 964.774 389.095 964.774 404.968V472.575C964.774 507.39 947.966 524.797 914.35 524.797ZM914.35 493.801C917.719 493.801 920.115 492.603 921.537 490.207C923.035 487.736 923.783 484.629 923.783 480.886V398.566C923.783 388.758 920.639 383.854 914.35 383.854C908.061 383.854 904.916 388.758 904.916 398.566V480.886C904.916 484.629 905.627 487.736 907.05 490.207C908.547 492.603 910.98 493.801 914.35 493.801ZM1028.68 524.797C995.134 524.797 978.363 507.39 978.363 472.575V404.968C978.363 389.095 982.818 376.442 991.728 367.009C1000.64 357.5 1012.95 352.746 1028.68 352.746C1044.47 352.746 1056.83 357.5 1065.74 367.009C1074.65 376.442 1079.1 389.095 1079.1 404.968V472.575C1079.1 507.39 1062.29 524.797 1028.68 524.797ZM1028.68 493.801C1032.04 493.801 1034.44 492.603 1035.86 490.207C1037.36 487.736 1038.11 484.629 1038.11 480.886V398.566C1038.11 388.758 1034.96 383.854 1028.68 383.854C1022.39 383.854 1019.24 388.758 1019.24 398.566V480.886C1019.24 484.629 1019.95 487.736 1021.38 490.207C1022.87 492.603 1025.31 493.801 1028.68 493.801ZM1094.04 523V325.344H1134.92V523H1094.04Z" fill="black"/>
<mask id="mask0_5_10" style="mask-type:alpha" maskUnits="userSpaceOnUse" x="434" y="547" width="524" height="206">
<path d="M434.014 750.814V547.428H489.136C503.928 547.428 514.675 551.049 521.377 558.291C528.157 565.456 531.546 577.32 531.546 593.883V602.781C531.546 612.334 529.813 620.077 526.346 626.009C522.956 631.941 517.756 635.832 510.746 637.681C519.913 639.992 526.038 645.423 529.12 653.975C532.278 662.449 533.858 672.811 533.858 685.06C533.858 698.234 532.625 709.752 530.16 719.613C527.694 729.474 523.226 737.139 516.755 742.609C510.283 748.079 501.077 750.814 489.136 750.814H434.014ZM473.766 624.045H482.087C485.862 624.045 488.288 622.581 489.367 619.653C490.446 616.726 490.985 613.22 490.985 609.137V588.683C490.985 582.135 488.096 578.861 482.318 578.861H473.766V624.045ZM477.811 714.99C488.365 714.99 493.643 709.983 493.643 699.967V674.544C493.643 668.766 492.757 664.221 490.985 660.908C489.29 657.518 486.054 655.824 481.278 655.824H473.766V714.759C475.461 714.913 476.809 714.99 477.811 714.99ZM596.953 752.663C562.439 752.663 545.182 734.751 545.182 698.927V629.36C545.182 613.028 549.766 600.008 558.934 590.301C568.102 580.517 580.775 575.625 596.953 575.625C613.209 575.625 625.92 580.517 635.088 590.301C644.256 600.008 648.84 613.028 648.84 629.36V698.927C648.84 734.751 631.544 752.663 596.953 752.663ZM596.953 720.768C600.42 720.768 602.885 719.536 604.349 717.07C605.89 714.528 606.66 711.331 606.66 707.479V622.773C606.66 612.681 603.425 607.635 596.953 607.635C590.482 607.635 587.246 612.681 587.246 622.773V707.479C587.246 711.331 587.978 714.528 589.442 717.07C590.983 719.536 593.487 720.768 596.953 720.768ZM714.593 752.663C680.08 752.663 662.823 734.751 662.823 698.927V629.36C662.823 613.028 667.406 600.008 676.574 590.301C685.742 580.517 698.415 575.625 714.593 575.625C730.849 575.625 743.561 580.517 752.728 590.301C761.896 600.008 766.48 613.028 766.48 629.36V698.927C766.48 734.751 749.184 752.663 714.593 752.663ZM714.593 720.768C718.06 720.768 720.526 719.536 721.989 717.07C723.53 714.528 724.301 711.331 724.301 707.479V622.773C724.301 612.681 721.065 607.635 714.593 607.635C708.122 607.635 704.886 612.681 704.886 622.773V707.479C704.886 711.331 705.618 714.528 707.082 717.07C708.623 719.536 711.127 720.768 714.593 720.768ZM817.442 752.663C806.271 752.663 798.721 750.313 794.792 745.614C790.94 740.837 789.014 733.557 789.014 723.773V615.724H777.343V584.176H789.014V547.428H829.229V584.176H840.901V615.724H829.229V714.066C829.229 716.916 829.691 718.919 830.616 720.075C831.54 721.231 833.312 721.808 835.932 721.808C837.78 721.808 839.437 721.654 840.901 721.346V749.543C839.976 749.851 837.087 750.429 832.234 751.276C827.38 752.201 822.45 752.663 817.442 752.663ZM854.19 750.814V547.428H896.716V594.692C898.95 588.221 902.379 583.444 907.001 580.363C911.623 577.204 917.016 575.625 923.179 575.625C935.198 575.625 943.942 579.4 949.411 586.95C954.881 594.5 957.616 604.63 957.616 617.342V750.814H915.783V620C915.783 616.225 914.975 613.143 913.357 610.755C911.816 608.367 909.351 607.173 905.961 607.173C903.11 607.173 900.838 608.405 899.143 610.871C897.525 613.336 896.716 616.263 896.716 619.653V750.814H854.19Z" fill="white"/>
</mask>
<g mask="url(#mask0_5_10)">
<path d="M946.518 915.221L415.681 777.97L1112.8 392.75L946.518 915.221Z" fill="black"/>
<path d="M484.382 323.814L302 893.686C302 893.686 401.637 914.279 454.628 820.166C507.619 726.054 547.652 775.358 607.257 746.646C680.618 711.309 700.511 606.522 795.108 656.16C889.705 705.799 861.044 543.869 978.263 567.937C1095.48 592.005 1085.61 516.23 1085.61 516.23L484.382 323.814Z" fill="#774FF8"/>
</g>
</svg>
