<svg width="209" height="35" viewBox="0 0 209 35" fill="none" xmlns="http://www.w3.org/2000/svg">
<path d="M18.4873 24.1078C18.1623 23.9358 17.7226 23.9358 16.8622 23.9358H7.64727C7.20756 23.9358 6.99726 23.9358 6.84431 23.8593C6.69137 23.7828 6.57666 23.6681 6.50018 23.5152C6.42371 23.3431 6.42371 23.1328 6.42371 22.6931V7.11175C6.42371 6.25144 6.42371 5.81172 6.25165 5.48671C6.0987 5.19993 5.86928 4.9514 5.58251 4.81757C5.2575 4.64551 4.81778 4.64551 3.95746 4.64551H0V27.3961C0 28.2565 0 28.6962 0.172064 29.0212C0.325009 29.308 0.554427 29.5565 0.8412 29.6903C1.16621 29.8624 1.60593 29.8624 2.46625 29.8624H19.3285V26.4211C19.3285 25.5608 19.3285 25.1211 19.1564 24.7961C19.0226 24.5093 18.7741 24.2608 18.4873 24.1078Z" fill="black"/>
<path d="M60.4326 5.08551C60.2605 4.87521 60.0502 4.72226 59.8017 4.62667C59.534 4.51196 59.209 4.51196 58.559 4.51196H53.4353C52.7853 4.51196 52.4603 4.51196 52.1927 4.62667C51.9441 4.72226 51.7338 4.87521 51.5618 5.08551C51.3706 5.31493 51.275 5.62082 51.0838 6.25172L43.6277 29.8818H48.2734C48.9235 29.8818 49.2485 29.8818 49.5161 29.7671C49.7647 29.6715 49.975 29.5185 50.147 29.3082C50.3382 29.0788 50.4338 28.7729 50.625 28.1612L51.6765 24.8537H60.337L61.3885 28.1612C61.5797 28.7729 61.6753 29.0788 61.8665 29.3082C62.0385 29.5185 62.2488 29.6715 62.4974 29.7671C62.765 29.8818 63.09 29.8818 63.74 29.8818H68.3858L60.9106 6.2326C60.7194 5.62082 60.6047 5.31493 60.4326 5.08551ZM52.9765 20.7242L55.9972 11.2607L59.0179 20.7242H52.9765Z" fill="black"/>
<path d="M85.9936 4.81765C85.7068 4.97059 85.4774 5.20001 85.3244 5.48678C85.1524 5.81179 85.1524 6.25151 85.1524 7.11183V19.6916L77.2566 5.86915C76.9889 5.41031 76.8742 5.18089 76.683 5.02795C76.5301 4.875 76.3389 4.77941 76.1286 4.70294C75.8992 4.62646 75.6315 4.62646 75.1153 4.62646H72.8403C71.9799 4.62646 71.5402 4.62646 71.2152 4.79853C70.9284 4.95147 70.6799 5.18089 70.5461 5.46766C70.374 5.79267 70.374 6.23239 70.374 7.09271V29.8434H74.0638C74.9242 29.8434 75.3639 29.8434 75.6889 29.6713C75.9756 29.5183 76.2242 29.2889 76.358 29.0022C76.5301 28.6771 76.5301 28.2374 76.5301 27.3771V14.8165L84.4259 28.6198C84.6935 29.0786 84.8082 29.308 84.9994 29.461C85.1524 29.6139 85.3436 29.7095 85.5539 29.786C85.7833 29.8625 86.0509 29.8625 86.5671 29.8625H88.8422C89.7025 29.8625 90.1422 29.8625 90.4672 29.6904C90.754 29.5375 90.9834 29.308 91.1364 29.0213C91.3084 28.6963 91.3084 28.2565 91.3084 27.3962V4.64558H87.6186C86.7583 4.64558 86.3186 4.64558 85.9936 4.81765Z" fill="black"/>
<path d="M108.132 17.5503C108.056 17.2826 108.056 16.9959 108.132 16.7091C108.228 16.4032 108.438 16.1164 108.897 15.562L117.768 4.64551H111.994C111.574 4.64551 111.344 4.64551 111.153 4.70286C110.981 4.76022 110.809 4.83669 110.656 4.93228C110.484 5.04699 110.35 5.21905 110.083 5.54406L103.372 13.7649C103.104 14.0899 102.971 14.262 102.798 14.3767C102.646 14.4914 102.493 14.5678 102.301 14.6061C102.11 14.6634 101.881 14.6634 101.46 14.6634H100.428V7.11175C100.428 6.25144 100.428 5.81172 100.256 5.48671C100.103 5.19993 99.8734 4.9514 99.5866 4.81757C99.2616 4.64551 98.8219 4.64551 97.9616 4.64551H94.2718V27.3961C94.2718 28.2565 94.2718 28.6962 94.4438 29.0212C94.5968 29.308 94.8262 29.5565 95.113 29.6903C95.438 29.8624 95.8777 29.8624 96.738 29.8624H100.428V19.5768H101.441C101.881 19.5768 102.091 19.5768 102.282 19.6342C102.454 19.6915 102.626 19.768 102.779 19.8636C102.951 19.9783 103.085 20.1504 103.353 20.4945L110.216 28.9638C110.484 29.308 110.618 29.4609 110.79 29.5947C110.943 29.7094 111.096 29.7859 111.287 29.8242C111.478 29.8815 111.708 29.8815 112.128 29.8815H117.959L108.878 18.6974C108.438 18.1238 108.209 17.8562 108.132 17.5503Z" fill="black"/>
<path d="M39.9379 17.1873C39.9379 15.8299 41.8688 16.0975 41.8688 13.6504C41.8688 11.4901 41.8688 10.4194 41.6394 9.54001C40.9894 7.15024 39.1349 5.27665 36.726 4.62664C35.8466 4.39722 34.776 4.39722 32.6156 4.39722H24.5478C23.6874 4.39722 23.2477 4.39722 22.9227 4.56928C22.6359 4.72223 22.3874 4.95164 22.2536 5.23842C22.0815 5.56343 22.0815 6.00314 22.0815 6.86346V27.664C22.0815 28.5244 22.0815 28.9641 22.2536 29.2891C22.4065 29.5759 22.6359 29.8244 22.9227 29.9582C23.2477 30.1303 23.6874 30.1303 24.5478 30.1303H32.998C35.1392 30.1303 36.2099 30.1303 37.0893 29.9009C39.4791 29.2509 41.3526 27.3773 42.0027 24.9875C42.2321 24.1081 42.2321 23.0374 42.2321 20.8771C42.2512 18.277 39.9379 18.5447 39.9379 17.1873ZM34.4892 23.9551C34.4892 25.6566 33.1127 27.0523 31.3921 27.0523C29.6906 27.0523 28.2949 25.6758 28.2949 23.9551C28.2949 21.9668 30.7038 20.9918 30.7038 17.2638C30.7038 13.5357 28.2949 12.5607 28.2949 10.5724C28.2949 8.92823 29.6714 7.47524 31.3921 7.47524C33.0936 7.47524 34.4892 8.85175 34.4892 10.5724C34.4892 12.5607 32.1377 13.5357 32.1377 17.2638C32.1377 20.9918 34.4892 21.9477 34.4892 23.9551Z" fill="black"/>
<path d="M181.451 18.2771C179.329 18.2771 177.952 19.711 177.952 22.0051C177.952 24.4523 179.348 25.8479 181.451 25.8479C183.535 25.8479 184.854 24.4523 184.854 22.0051C184.854 19.711 183.535 18.2771 181.451 18.2771Z" fill="black"/>
<path d="M203.513 0H132.183C129.143 0 126.696 2.46625 126.696 5.48692V29.442C126.696 32.4818 129.162 34.9289 132.183 34.9289H203.513C206.553 34.9289 209 32.4627 209 29.442V5.48692C209 2.46625 206.553 0 203.513 0ZM153.098 29.8626H136.236C135.376 29.8626 134.936 29.8626 134.611 29.6905C134.324 29.5376 134.076 29.3082 133.942 29.0214C133.77 28.6964 133.77 28.2567 133.77 27.3964V4.64572H137.727C138.588 4.64572 139.027 4.64572 139.352 4.81778C139.639 4.97073 139.888 5.20015 140.022 5.48692C140.194 5.81193 140.194 6.25165 140.194 7.11197V22.7124C140.194 23.1521 140.194 23.3624 140.27 23.5345C140.347 23.6874 140.461 23.8021 140.614 23.8786C140.786 23.9551 140.997 23.9551 141.417 23.9551H150.632C151.492 23.9551 151.932 23.9551 152.257 24.1272C152.544 24.2801 152.773 24.5095 152.926 24.7963C153.098 25.1213 153.098 25.561 153.098 26.4213V29.8626ZM170.84 29.9773H167.303C166.596 29.9773 166.022 29.4038 166.022 28.6964V27.8361C166.022 27.7405 165.888 27.7023 165.831 27.7787C164.971 29.1744 163.403 30.1494 161.185 30.1494C157.457 30.1494 154.322 26.7846 154.322 22.005C154.322 17.2828 157.362 13.9372 161.262 13.9372C163.327 13.9372 164.78 14.7019 165.678 16.0593C165.774 16.2122 166.003 16.1358 166.003 15.9637V15.5431C166.003 14.8357 166.577 14.2622 167.284 14.2622H170.821V29.9773H170.84ZM182.885 30.1494C180.514 30.1494 178.87 29.1935 177.99 27.5493V29.3273C177.99 29.6714 177.704 29.9582 177.359 29.9582H173.803C173.459 29.9582 173.173 29.6714 173.173 29.3273V4.56925H176.442C177.359 4.56925 178.105 5.31486 178.105 6.23253V16.4416C179.137 14.9122 180.629 13.918 182.999 13.918C186.804 13.918 189.939 17.2064 189.939 21.9859C189.939 26.7846 186.689 30.1494 182.885 30.1494ZM197.357 30.3979C194.05 30.3979 191.985 29.2891 190.589 27.8552C190.322 27.5875 190.341 27.1478 190.627 26.8993L192.654 25.0831C192.902 24.8728 193.247 24.8728 193.495 25.0639C194.508 25.886 195.713 26.3831 197.032 26.3831C198.676 26.3831 199.192 26.0772 199.192 25.4081C199.192 24.5478 198.179 24.5478 195.617 23.8595C193.457 23.286 191.029 22.0815 191.029 18.7358C191.029 15.1225 193.782 13.6504 197.166 13.6504C199.479 13.6504 201.219 14.3386 202.481 15.4475C202.729 15.6769 202.767 16.0593 202.538 16.3078L200.626 18.3726C200.435 18.5829 200.11 18.6211 199.862 18.4491C199.135 17.952 198.198 17.5505 197.204 17.5505C196.057 17.5505 195.483 17.8564 195.483 18.4873C195.483 19.3858 196.497 19.5006 198.657 19.9976C200.97 20.5329 203.876 21.6227 203.876 25.0066C203.876 27.989 202.347 30.3979 197.357 30.3979Z" fill="black"/>
<path d="M162.696 18.2771C160.612 18.2771 159.446 19.711 159.446 22.0051C159.446 24.3758 160.612 25.8479 162.696 25.8479C164.818 25.8479 166.022 24.3949 166.022 22.0051C166.022 19.711 164.818 18.2771 162.696 18.2771Z" fill="black"/>
</svg>
