<svg width="158" height="30" viewBox="0 0 158 30" fill="none" xmlns="http://www.w3.org/2000/svg">
<path d="M101.636 7.74242C102.71 7.74242 103.575 8.60765 103.575 9.68175H111.318C111.318 4.34112 106.977 0 101.636 0C96.2954 0 91.9543 4.34112 91.9543 9.68175V11.6211C91.9543 16.9617 96.2954 21.3028 101.636 21.3028C106.977 21.3028 111.318 16.9617 111.318 11.6211H103.575C103.575 12.6952 102.71 13.5604 101.636 13.5604C100.562 13.5604 99.6967 12.6952 99.6967 11.6211V9.68175C99.6967 8.60765 100.562 7.74242 101.636 7.74242Z" fill="#1450F0"/>
<path d="M24.1969 0H23.2273V21.2879H30.9697V19.3635H40.6514V11.6211H30.9697V7.74242H42.5908V0H30.9697H24.1969Z" fill="#1450F0"/>
<path d="M15.4848 0H0V21.2879H7.74242V9.66684C7.74242 8.59274 8.60766 7.7275 9.68175 7.7275C10.7558 7.7275 11.6211 8.59274 11.6211 9.66684V21.2879H19.3635V3.86376C19.3635 1.73049 17.633 0 15.4848 0Z" fill="#1450F0"/>
<path d="M148.09 0C142.75 0 138.409 4.3262 138.409 9.68175V21.3028H146.151V9.68175C146.151 8.60765 147.016 7.74242 148.09 7.74242C149.165 7.74242 150.03 8.60765 150.03 9.68175V21.3028H157.772V9.68175C157.772 4.3262 153.446 0 148.09 0Z" fill="#1450F0"/>
<path d="M124.863 0C119.523 0 115.182 4.34112 115.182 9.68175V21.3028H122.924V19.3635H126.803V21.3028H134.545V9.68175C134.545 4.3262 130.219 0 124.863 0ZM126.803 11.6211H122.924V9.68175C122.924 8.60765 123.789 7.74242 124.863 7.74242C125.937 7.74242 126.803 8.60765 126.803 9.68175V11.6211Z" fill="#1450F0"/>
<path d="M46.4545 7.74242H51.7802V21.2879H59.5226V7.74242H64.8483V0H46.4545V7.74242Z" fill="#1450F0"/>
<path d="M78.4088 7.74242C79.4829 7.74242 80.3481 8.60765 80.3481 9.68175H88.0905C88.0905 4.34112 83.7494 0 78.4088 0C73.0681 0 68.727 4.34112 68.727 9.68175C68.727 15.0224 73.0681 19.3635 78.4088 19.3635C79.4829 19.3635 80.3481 20.2287 80.3481 21.3028C80.3481 21.6609 80.2437 21.9891 80.0796 22.2725H88.0458C88.0756 21.9592 88.0905 21.631 88.0905 21.3028C88.0905 15.9622 83.7494 11.6211 78.4088 11.6211C77.3347 11.6211 76.4694 10.7558 76.4694 9.68175C76.4694 8.60765 77.3347 7.74242 78.4088 7.74242Z" fill="#1450F0"/>
<path d="M76.4694 21.2878H68.727C68.727 21.616 68.7419 21.9442 68.7718 22.2575H76.738C76.5739 21.9741 76.4694 21.6459 76.4694 21.2878Z" fill="#1450F0"/>
<path d="M69.1746 24.197H87.643C87.7474 23.8837 87.822 23.5555 87.8966 23.2273H68.921C68.9806 23.5555 69.0701 23.8837 69.1746 24.197Z" fill="#1450F0"/>
<path d="M70.0248 26.1364H86.7777C86.9567 25.8231 87.1208 25.4949 87.27 25.1667H69.5325C69.6817 25.4949 69.8458 25.8231 70.0248 26.1364Z" fill="#1450F0"/>
<path d="M71.5018 28.0756H85.3158C85.6141 27.7773 85.8827 27.4491 86.1363 27.106H70.6813C70.9349 27.4342 71.2034 27.7623 71.5018 28.0756Z" fill="#1450F0"/>
<path d="M74.2019 29.9999H82.6007C83.1676 29.7314 83.6897 29.4032 84.1969 29.0303H72.6206C73.1129 29.4032 73.6499 29.7314 74.2019 29.9999Z" fill="#1450F0"/>
</svg>
