<svg width="245" height="113" viewBox="0 0 245 113" fill="none" xmlns="http://www.w3.org/2000/svg">
<rect width="245" height="113" rx="5" fill="#71E400"/>
<path d="M81.9566 67.0726H93.568C94.7248 67.0726 95.1626 66.3297 95.1626 65.5072V63.1565C95.1626 62.1802 94.5626 61.5912 93.568 61.5912H91.0922C85.5838 61.5912 80.7565 59.9462 80.7565 53.3663C80.7565 46.3938 84.9459 45.1415 90.9732 45.1415H100.747V50.6229H88.7353C87.6974 50.6229 87.1406 51.3287 87.1406 52.1883V54.539C87.1406 55.4782 87.6217 56.1044 88.7353 56.1044H91.2111C96.7195 56.1044 101.547 57.7494 101.547 64.2921C101.547 71.3018 97.3573 72.5541 91.33 72.5541H81.9512V67.0726H81.9566Z" fill="black"/>
<path d="M121.142 61.5911H111.926C110.807 61.5911 110.331 62.2172 110.331 63.1565V65.5072C110.331 66.3668 110.888 67.0725 111.926 67.0725H124.332V72.554H114.715C108.331 72.554 103.941 71.3017 103.941 64.3292C103.941 61.8617 103.941 55.8284 103.941 53.3609C103.941 46.3884 108.331 45.1361 114.715 45.1361H123.532V50.6176H111.92C110.92 50.6176 110.326 51.3233 110.326 52.1829V54.5337C110.326 55.4729 110.807 56.099 111.92 56.099H121.137V61.5911H121.142Z" fill="black"/>
<path d="M143.527 61.5911H134.31C133.191 61.5911 132.716 62.2172 132.716 63.1565V65.5072C132.716 66.3668 133.273 67.0725 134.31 67.0725H146.716V72.554H137.1C130.716 72.554 126.326 71.3017 126.326 64.3292C126.326 61.8617 126.326 55.8284 126.326 53.3609C126.326 46.3884 130.716 45.1361 137.1 45.1361H145.916V50.6176H134.305C133.305 50.6176 132.71 51.3233 132.71 52.1829V54.5337C132.71 55.4729 133.191 56.099 134.305 56.099H143.522V61.5911H143.527Z" fill="black"/>
<path d="M149.517 45.1415H161.885C171.064 45.1415 173.453 50.6229 173.453 58.8478C173.453 67.0726 171.058 72.5541 161.885 72.5541H149.517V45.1415ZM163.879 67.0726C165.793 67.0726 167.074 65.8575 167.074 63.9419V53.759C167.074 51.8805 165.798 50.6282 163.879 50.6282H155.901V67.0779H163.879V67.0726Z" fill="black"/>
<path d="M183.989 45.1415H190.729L200.865 72.5594H194.124L192.567 68.3302H182.156L180.599 72.5594H173.858L183.989 45.1415ZM190.535 62.8435L187.383 54.2684L184.194 62.8435H190.535Z" fill="black"/>
<path d="M215.033 44.5525C223.293 44.5525 228.796 50.2727 228.796 58.8478C228.796 67.4228 223.288 73.1431 215.033 73.1431C206.773 73.1431 201.265 67.4228 201.265 58.8478C201.265 50.2727 206.773 44.5525 215.033 44.5525ZM219.223 67.6616C221.136 67.6616 222.412 66.4093 222.412 64.5309V53.17C222.412 51.2916 221.136 50.0393 219.223 50.0393H210.844C208.93 50.0393 207.655 51.2916 207.655 53.17V64.5309C207.655 66.4093 208.93 67.6616 210.844 67.6616H219.223Z" fill="black"/>
<path d="M78.0797 37.7922C76.5175 35.0648 71.8849 34.5447 64.6791 36.2852C61.5114 37.0493 58.0085 38.2114 54.3327 39.7025C49.5162 37.8718 44.2619 37.962 39.5157 39.9731C34.7209 42.0055 31.0126 45.7464 29.0828 50.5115C28.1098 52.9153 27.6503 55.4305 27.6935 57.9404C25.5853 59.6172 23.6879 61.2887 22.0554 62.9178C16.8606 68.1127 14.9524 72.2888 16.5471 75.0003C18.1417 77.7119 22.7798 78.1788 29.9639 76.3588C35.9101 74.8518 43.0294 71.9227 50.2406 68.0384C50.7109 67.7837 51.2676 67.7412 51.765 67.9323C52.4299 68.187 53.0677 68.638 53.7867 69.3066L55.0732 70.8402L54.3651 68.9776C53.8029 66.6959 54.1435 65.4489 55.7922 63.7456L57.3544 62.4827L55.4624 63.1831C53.138 63.735 51.8677 63.4007 50.1325 61.7822L48.8459 60.2487L49.5541 62.1112C49.8514 63.3211 49.8946 64.2391 49.6243 65.0934C49.4892 65.5179 49.1757 65.8628 48.7756 66.0751C44.8836 68.1605 41.0293 69.954 37.3913 71.3814C34.8777 69.6515 32.8073 67.2425 31.5045 64.2709C27.753 55.733 31.764 45.826 40.4617 42.1434C36.1156 43.9847 34.1101 48.9356 35.9858 53.2072C37.8616 57.4735 42.9051 59.4421 47.2566 57.6008C51.6677 55.733 56.803 57.7865 58.6085 62.1908C60.3978 66.5526 58.0193 71.5247 53.565 73.2599C50.2622 74.544 46.7755 74.7509 43.5321 74.0346C42.3807 74.544 41.2455 75.0269 40.132 75.4779C42.4402 76.3641 44.8511 76.8098 47.262 76.8098C49.8892 76.8098 52.5164 76.2845 55.003 75.2285C63.2952 71.7157 67.8576 63.2043 66.6089 54.8203C68.7874 53.1382 70.7443 51.4561 72.4254 49.8111C77.6851 44.6799 79.642 40.5197 78.0797 37.7922ZM34.7479 72.3684C32.8668 73.0317 31.0559 73.5888 29.3477 74.024C22.5852 75.7379 19.4012 75.0322 18.6769 73.7958C17.9525 72.5594 18.9201 69.4977 23.8123 64.6105C25.0502 63.3741 26.4448 62.1165 27.9746 60.843C28.2341 62.3235 28.6774 63.788 29.299 65.2048C30.5423 68.0278 32.4073 70.4634 34.7479 72.3684ZM66.0251 52.1936C65.8035 51.4561 65.5386 50.7238 65.2197 49.9968C63.9764 47.1738 62.1114 44.7329 59.7654 42.8279C56.9166 43.8361 53.8948 45.0938 50.7919 46.5689C50.0081 46.9404 49.3811 47.5718 49.0297 48.3519C48.3864 49.7846 48.3864 51.281 48.9 53.361L49.9487 56.1097L48.0513 53.8492C45.4944 51.4614 43.6186 50.9679 40.1914 51.7798L37.3913 52.8092L39.6941 50.9467C42.1267 48.4368 42.6294 46.5955 41.8023 43.2312L40.7536 40.4772L42.651 42.7377C44.1322 44.1227 45.3809 44.8656 46.8404 45.0938C47.5756 45.2052 48.327 45.0619 48.9973 44.7435C51.8515 43.3639 54.6516 42.154 57.3328 41.1458C57.3274 41.1405 57.322 41.1405 57.3166 41.1352C60.1275 40.0739 62.8033 39.2249 65.2629 38.6306C72.047 36.991 75.2201 37.7338 75.9337 38.9755C76.6472 40.2172 75.6418 43.2684 70.6902 48.1025C69.3172 49.445 67.7495 50.8193 66.0251 52.1936Z" fill="black"/>
</svg>
