<svg id="图层_1" data-name="图层 1" xmlns="http://www.w3.org/2000/svg" xmlns:xlink="http://www.w3.org/1999/xlink" width="500" height="120" viewBox="0 0 500 120">
  <defs>
    <style>
      .cls-1 {
        fill: url(#未命名的渐变_13);
      }

      .cls-2 {
        isolation: isolate;
      }
    </style>
    <linearGradient id="未命名的渐变_13" data-name="未命名的渐变 13" x1="74.01" y1="42.64" x2="73.29" y2="109.78" gradientUnits="userSpaceOnUse">
      <stop offset="0" stop-color="#faa64c"/>
      <stop offset="0.58" stop-color="#ff5071"/>
    </linearGradient>
  </defs>
  <path class="cls-1" d="M79.8,46.75c0,7.93,5.74,14.33,12.73,14.29s12.61-6.5,12.56-14.43a15.65,15.65,0,0,0-.65-4.48V42a71.88,71.88,0,0,1,7.78,17.73,36.83,36.83,0,0,1,1.41,11.5c0,.57,0,1.18,0,1.83a39.57,39.57,0,0,1-5.54,20.5,2,2,0,0,0-.35-.53L92.9,76.86,78.82,85.18,63.48,67.86,39.89,93.38a1.76,1.76,0,0,0-.33.49A40.91,40.91,0,0,1,37,88.81,32.62,32.62,0,0,1,33.73,76c0-.19,0-.38,0-.58l0-.69V73.53c0-.32,0-.63,0-1s0-.81,0-1.23c0-.09,0-.18,0-.28l0-.45c0-.07,0-.14,0-.21,0-.65.12-1.3.2-2l0-.22.06-.48c0-.1,0-.2,0-.31l.05-.37.07-.43v0l0-.29,0,.14,0-.23v-.09c0-.25.09-.5.14-.75l0-.16c0-.22.08-.43.13-.64l0-.09c0-.24.1-.46.16-.69l0-.21c0-.21.1-.41.16-.61v-.06l.39-1.33.06-.18.21-.63.05-.15c.06-.18.13-.35.19-.53l0-.1c.16-.44.33-.86.51-1.28l.08-.18c.16-.38.33-.76.51-1.13l.09-.19,0,.05A40.09,40.09,0,0,1,52,39.84c1-.89,1.9-1.77,2.8-2.66l.44-.44c6.32-6.38,10.27-13.24,4.94-25.68l-.27-.61a35.4,35.4,0,0,1,19.86,31.6Zm26.51,49.58a39.07,39.07,0,0,1-4.19,5l-56.44.32a39.92,39.92,0,0,1-4.24-4.93Zm-55.46,9.22,46.5-.26h.16q-1.2.9-2.49,1.71a39.73,39.73,0,0,1-6.47,3.29l-29.19.16a39.67,39.67,0,0,1-8.91-4.81l-.12-.09Z"/>
  <g id="页面-1">
    <g id="logo1">
      <g id="Web3Camp" class="cls-2">
        <g class="cls-2">
          <path d="M135,44.16h8.7l8,31.14,8.76-31.14h7.08l8.82,31.14,8-31.14h8.7l-11.76,42H172l-7.92-27.72-7.86,27.72h-9.42Z"/>
          <path d="M209,80a8.32,8.32,0,0,0,6.72-3l6.24,3.6c-2.82,4.08-7.32,6.42-13.08,6.42-10.08,0-16.44-6.9-16.44-15.84s6.42-15.84,15.84-15.84c8.88,0,15.18,7,15.18,15.84a17.88,17.88,0,0,1-.3,3.18H200.53C201.61,78.3,204.91,80,209,80Zm6.72-11.64a7.28,7.28,0,0,0-7.44-6.06c-4.14,0-7,2.22-7.86,6.06Z"/>
          <path d="M261,71.16C261,80.1,254.35,87,246.31,87c-4.38,0-7.56-1.62-9.72-4.38v3.54h-7.74v-42h7.74V59.7c2.16-2.76,5.34-4.38,9.72-4.38C254.35,55.32,261,62.22,261,71.16Zm-7.74,0a8.31,8.31,0,1,0-16.62,0,8.31,8.31,0,1,0,16.62,0Z"/>
          <path d="M293.65,73.2c0,9-7.08,13.8-15,13.8-6.3,0-12-2.88-14.4-8.88L271.33,74c1,3.12,3.36,4.86,7.32,4.86,4.32,0,6.72-2.28,6.72-5.7s-2.4-5.7-6.72-5.7h-1.8l-3.18-4.8L282,51.9H265.51V44.16h26.4V51l-7.86,10.2C289.51,62.82,293.65,67,293.65,73.2Z"/>
          <path d="M297.55,65.16c0-12.3,9.12-21.84,21.84-21.84a20.89,20.89,0,0,1,18.05,9.9l-7.13,4.14a12.12,12.12,0,0,0-10.92-6c-8.22,0-13.62,5.7-13.62,13.8s5.4,13.74,13.62,13.74c4.8,0,8.94-2.28,10.92-5.94l7.13,4.14A20.74,20.74,0,0,1,319.39,87C306.67,87,297.55,77.4,297.55,65.16Z"/>
          <path d="M372.9,56.16v30h-7.73V82.62A11.94,11.94,0,0,1,355.39,87c-8,0-14.58-6.9-14.58-15.84s6.6-15.84,14.58-15.84a11.94,11.94,0,0,1,9.78,4.38V56.16Zm-7.73,15.2a8.31,8.31,0,1,0-16.62,0,8.31,8.31,0,1,0,16.62,0Z"/>
          <path d="M424.44,67.68V86.16H416.7V68.22c0-3.54-1.8-5.7-5-5.7-3.42,0-5.57,2.28-5.57,6.78V86.16h-7.74V68.22c0-3.54-1.8-5.7-5-5.7s-5.64,2.28-5.64,6.78V86.16h-7.74v-30h7.74v3.18c1.68-2.52,4.5-4,8.34-4a9,9,0,0,1,8.16,4.32c1.85-2.7,4.85-4.32,8.93-4.32C419.94,55.32,424.44,60.18,424.44,67.68Z"/>
          <path d="M463.15,71.16c0,8.94-6.6,15.84-14.64,15.84-4.38,0-7.56-1.62-9.72-4.38V98.16h-7.74v-42h7.74V59.7c2.16-2.76,5.34-4.38,9.72-4.38C456.55,55.32,463.15,62.22,463.15,71.16Zm-7.75,0a8.31,8.31,0,1,0-16.61,0,8.31,8.31,0,1,0,16.61,0Z"/>
        </g>
      </g>
    </g>
  </g>
</svg>
