<svg width="113" height="85" viewBox="0 0 113 85" fill="none" xmlns="http://www.w3.org/2000/svg">
<path d="M32.0453 22.9154C33.5374 24.6171 34.214 28.9235 34.2834 28.8888C37.8228 27.1002 41.4663 26.8745 44.2423 27.4128C47.0183 27.9511 48.7012 29.0972 50.4709 30.3648C52.2406 31.6497 53.0734 32.188 54.5828 32.7437C56.1096 33.2994 59.1112 33.3515 62.0606 32.9C69.0353 31.8234 73.6157 32.1533 77.4847 33.8898C76.9816 33.9766 76.4437 34.0981 75.8712 34.237C72.4879 33.0389 68.1505 32.7437 62.2862 33.7856C60.2389 34.1329 58.1569 34.185 56.0923 33.9939C54.4961 33.7682 52.9519 33.1952 51.5813 32.327C51.0087 31.9276 50.3841 31.4587 49.7248 31.0073C49.187 30.5731 46.4284 28.8714 44.7281 28.472C43.0278 28.0727 40.9805 27.9858 39.5925 28.1768C38.2045 28.3679 36.2266 28.9756 35.3418 29.4792C34.1793 30.1738 33.3812 30.9378 32.9648 31.7887C33.0689 32.3617 33.1557 32.8305 33.2424 33.1952C33.2771 33.1431 34.1099 30.6426 36.0705 30.521C38.031 30.3821 38.7077 32.5701 38.9853 33.7682C39.2629 35.331 39.2802 36.9112 39.0546 38.474C38.9852 39.3422 38.8985 40.2278 38.8985 41.096C38.8812 42.4678 39.0547 43.8222 39.4017 45.1419C39.9569 45.7671 40.5641 46.3401 41.1713 46.9131C40.2518 45.4719 39.8007 43.6312 39.8007 41.096C39.8007 40.2625 39.8701 39.3943 39.9395 38.5608C40.165 36.8938 40.1304 35.2268 39.8354 33.5772C39.419 31.7539 38.6383 30.5731 37.6146 30.0348C39.766 30.0696 41.7612 30.2606 43.583 31.424C45.3874 32.5874 46.1508 34.2197 48.0419 35.9388C49.933 37.6578 53.3336 39.4638 55.5891 39.6895C57.8446 39.9152 59.302 39.5332 61.2279 38.9255C63.1537 38.3177 66.6237 36.8417 68.6189 36.234C69.9548 35.8346 71.4296 35.5567 73.0431 35.4178C71.2041 36.234 68.7404 38.1961 68.7924 39.6895C68.8618 41.2176 69.6252 42.19 69.2088 43.6833C68.7924 45.1593 67.9423 45.8886 67.9423 46.9652C61.0717 48.7711 55.3809 48.3717 51.0955 45.8018C47.9899 43.8743 45.7517 41.1307 44.6587 37.6752L44.5546 37.3627H43.583C44.676 41.2002 47.1918 44.4995 50.6097 46.5832C53.4898 48.2155 56.7863 49.049 60.1001 48.9448C62.8067 48.91 65.4959 48.528 68.0984 47.8161C68.2372 48.5627 68.4107 48.5801 68.9833 49.6567C69.5558 50.7333 69.9202 51.3584 69.764 52.7302C66.3981 54.1367 62.772 54.8661 59.1285 54.8661C57.6191 54.8661 56.127 54.7445 54.6522 54.5014C39.6966 51.9662 29.5643 37.8489 32.0453 22.9154ZM78.0746 34.7406C78.6298 34.6538 79.2024 34.7753 79.6882 35.0532L80.1046 35.3136C81.0935 36.0082 81.7528 37.0675 81.9263 38.2482C82.0651 39.4985 81.5273 40.7487 80.3128 41.9642C80.226 42.0511 80.1046 42.1032 79.9831 42.1032C79.9311 42.1032 79.8964 42.1032 79.8443 42.1032L70.8918 39.2727L70.805 39.238C70.5968 39.5159 70.4927 39.8458 70.4927 40.1931C70.5274 40.5577 70.6142 40.9224 70.7356 41.2697C71.0999 42.1726 71.1347 43.1971 70.8397 44.1174C70.6662 44.6384 70.4406 45.1419 70.163 45.6108C69.6946 46.4443 69.4517 46.8958 70.059 48.0071C70.2325 48.3717 70.4406 48.6843 70.5968 48.9621C71.1867 49.9519 71.6551 50.6986 71.551 52.0877C71.5337 52.3308 71.3255 52.5218 71.0826 52.5218H71.0479C70.9264 52.5218 70.8223 52.4524 70.7356 52.3656C70.8223 50.959 70.3886 50.195 69.7987 49.1531C69.6426 48.8579 69.4517 48.5107 69.2609 48.146C68.6536 46.9305 68.9139 46.4096 69.365 45.5413C69.6426 45.0378 69.8855 44.4995 70.0416 43.9438C70.3365 42.9714 70.3019 41.9121 69.9375 40.9571C69.7987 40.5751 69.7293 40.1931 69.6946 39.7937C69.6773 39.5679 69.7293 39.3422 69.7987 39.1165C70.2498 38.3524 70.857 37.7099 71.5857 37.2411C72.7829 36.3555 74.1362 35.6957 75.5589 35.2616C76.0447 35.14 76.4784 35.0358 76.9122 34.9316L77.3806 34.8448L77.6062 34.7927C77.7797 34.7753 77.9185 34.758 78.0746 34.7406ZM78.4737 35.6262H78.3522C77.7103 35.6957 77.051 35.8172 76.409 35.9735C74.8649 36.3555 73.4248 37.0327 72.1583 37.953C71.9327 38.1267 71.7072 38.3003 71.4816 38.4913L79.8443 41.1481C80.6945 40.1757 81.0935 39.238 81.0067 38.3177C80.8506 37.3974 80.3475 36.5812 79.5841 36.043L79.2718 35.8346C78.9942 35.6609 78.6819 35.5915 78.3522 35.6088L78.4737 35.6262ZM44.1729 18.8521C47.6776 18.8695 49.0482 19.4251 49.5687 19.7724C48.8747 20.1718 48.146 20.5017 47.3826 20.7796C44.0688 21.9604 41.5357 22.2382 36.5563 21.2658C36.5216 21.2658 37.3544 24.756 34.7345 27.6733C33.9364 23.7315 32.1147 21.2137 30.9522 20.0676C31.9238 20.0155 32.8781 19.9287 33.8323 19.7724C38.2566 19.1126 41.4663 18.8695 43.7912 18.8521H44.1729ZM51.269 19.8072C51.269 19.8245 51.1475 24.4435 47.4347 27.3954C47.4347 27.3954 41.5704 25.2422 36.0011 27.3954C37.0768 25.9889 37.5626 24.0441 37.4758 22.2729C44.8495 23.7836 49.7769 20.9011 51.269 19.8072ZM72.3144 3.36299C76.4611 5.63774 79.9658 8.91963 82.4641 12.9135L82.6897 13.2955L71.6725 19.6335C71.6204 19.5467 71.5684 19.4599 71.499 19.373C67.0574 12.5488 57.914 10.6213 51.0781 15.0667C56.5607 8.79807 64.0732 4.64796 72.3144 3.36299ZM69.5385 2.04329C65.947 2.87679 62.477 4.21385 59.2847 6.05449C54.1491 8.98909 49.7769 13.1045 46.5325 18.0533C44.0341 17.8102 40.0609 17.9144 33.7456 18.8695C33.5027 18.9042 33.2598 18.9389 32.9995 18.9737C33.2077 18.3312 33.4506 17.7061 33.6935 17.0636C39.419 3.05043 55.4677 -3.68699 69.5385 2.04329Z" fill="#AF3131"/>
<path fill-rule="evenodd" clip-rule="evenodd" d="M79.9137 64.9895L73.2513 84.2641H79.0809L80.0872 81.2079H85.83L86.8363 84.2641H92.7006L86.0382 65.0069H79.9137V64.9895ZM82.9846 72.5431L84.39 76.78H81.5793L82.9846 72.5431Z" fill="white"/>
<path fill-rule="evenodd" clip-rule="evenodd" d="M65.1056 77.9954C63.3706 79.6624 60.6466 79.6624 58.9117 77.9954C57.3675 75.9638 57.3675 73.1507 58.9117 71.1191C59.7097 70.2682 60.8375 69.8167 62.0173 69.8688H62.0346C63.1971 69.8167 64.3248 70.2682 65.1056 71.1191C66.6497 73.1507 66.6497 75.9638 65.1056 77.9954ZM62.052 64.7637C59.4495 64.7116 56.9338 65.7014 55.06 67.5246C51.243 71.449 51.243 77.7002 55.06 81.6072C56.9164 83.4479 59.4321 84.4376 62.0346 84.4029C64.6371 84.455 67.1529 83.4479 68.992 81.6246C72.7742 77.6829 72.7742 71.4664 68.992 67.542C67.1529 65.7014 64.6545 64.7116 62.052 64.7637Z" fill="white"/>
<path fill-rule="evenodd" clip-rule="evenodd" d="M24.3246 69.8862C25.5217 69.8167 26.6495 70.494 27.1526 71.5879L27.3088 71.8831H33.6415L33.4159 71.1885C32.826 69.2611 31.5942 67.6115 29.9286 66.4654C28.263 65.3367 26.2678 64.7463 24.2552 64.7637C21.6527 64.7116 19.1369 65.7014 17.2805 67.5246C13.4635 71.449 13.4635 77.6829 17.2805 81.6072C19.1369 83.4305 21.6527 84.4203 24.2552 84.3682C26.2678 84.4029 28.2457 83.7952 29.9286 82.6838C31.5942 81.5551 32.826 79.8882 33.4159 77.9607L33.6415 77.2661H27.3088L27.1526 77.5613C26.6495 78.6553 25.5217 79.3325 24.3246 79.263C23.1274 79.3325 21.965 78.881 21.1322 78.0128C19.588 75.9811 19.588 73.1681 21.1322 71.1365C21.965 70.2682 23.1274 69.7994 24.3246 69.8862Z" fill="white"/>
<path fill-rule="evenodd" clip-rule="evenodd" d="M0 73.446H4.97942L0 79.8535V84.212H11.7806V79.5062H6.80116L11.7806 73.0987V68.7402H0V73.446Z" fill="white"/>
<path fill-rule="evenodd" clip-rule="evenodd" d="M113 65.0069H105.817L100.629 71.9006V64.9895H95.1296V84.212H100.612V77.2662L105.904 84.212H112.983L105.106 74.6268L113 65.0069Z" fill="white"/>
<path fill-rule="evenodd" clip-rule="evenodd" d="M42.247 64.9895H36.7645V84.212H41.9174V84.2294H50.0372V78.8116H42.247V64.9895Z" fill="white"/>
<path fill-rule="evenodd" clip-rule="evenodd" d="M61.783 64.7465H62.0433C64.6458 64.6944 67.1442 65.7016 68.9833 67.5249C72.7655 71.4666 72.7655 77.6831 68.9833 81.6075C67.1442 83.4307 64.6284 84.4379 62.0259 84.3858C59.4235 84.4379 56.9077 83.4307 55.0513 81.5901C51.2343 77.6657 51.2343 71.4145 55.0513 67.5075C56.7863 65.8058 59.0938 64.816 61.5228 64.7465H61.783ZM24.2725 64.7465C26.2851 64.7118 28.263 65.3196 29.9459 66.4483C31.6115 67.577 32.8434 69.2439 33.4333 71.1714L33.6588 71.866H27.3261L27.17 71.5708C26.6668 70.4768 25.5391 69.7996 24.3419 69.8691C23.1448 69.7996 21.9823 70.2511 21.1495 71.1193C19.6054 73.1509 19.6054 75.964 21.1495 77.9956C21.9823 78.8639 23.1448 79.3153 24.3419 79.2459C25.5391 79.3153 26.6668 78.6381 27.17 77.5442L27.3261 77.249H33.6588L33.4333 77.9435C32.8434 79.871 31.6115 81.538 29.9459 82.6667C28.2804 83.7954 26.2851 84.3858 24.2725 84.351C21.67 84.4031 19.1543 83.396 17.2979 81.5901C13.4809 77.6657 13.4809 71.4319 17.2979 67.5075C19.1543 65.6842 21.67 64.6771 24.2725 64.7465ZM86.0382 64.9896L92.7006 84.2469H86.8363L85.83 81.1907H80.0872L79.0809 84.2469H73.2513L79.9137 64.9896H86.0382ZM42.247 64.9896V78.8118H50.0371V84.2121H41.9H36.7645V64.9896H42.247ZM100.63 64.9896V71.9007L105.817 64.9896H113L105.088 74.6096L112.983 84.2121H105.904L100.612 77.2663V84.2121H95.1296V64.9896H100.63ZM11.7806 68.7404V73.0989L6.80116 79.5063H11.7806V84.2121H0V79.8536L4.96208 73.4461H0V68.7404H11.7806ZM58.9203 71.1193C57.3762 73.1509 57.3762 75.964 58.9203 77.9956C60.6553 79.6626 63.3792 79.6626 65.1142 77.9956C66.6584 75.964 66.6584 73.1509 65.1142 71.1193C64.3682 70.3205 63.3272 69.8691 62.2341 69.8691H62.0433H62.0259C60.8461 69.817 59.7184 70.2684 58.9203 71.1193ZM82.9846 72.5432L81.5793 76.7801H84.39L82.9846 72.5432Z" fill="#AF3131"/>
</svg>
