<svg width="447" height="32" viewBox="0 0 447 32" fill="none" xmlns="http://www.w3.org/2000/svg">
<path d="M8.75489 31.5591L0 0.425654H7.06666L12.1314 22.058H12.3853L17.9729 0.425654H24.0237L29.5963 22.1036H29.8652L34.9299 0.425654H41.9966L33.2417 31.5591H26.937L21.1103 11.2038H20.8713L15.0596 31.5591H8.75489Z" fill="#4723B6"/>
<path d="M71.8506 15.9924C71.8506 19.3875 71.2182 22.2759 69.9532 24.6575C68.6983 27.0391 66.9851 28.8583 64.8138 30.115C62.6525 31.3615 60.2223 31.9848 57.5231 31.9848C54.804 31.9848 52.3638 31.3565 50.2024 30.0998C48.0411 28.8431 46.333 27.0239 45.078 24.6423C43.823 22.2606 43.1955 19.3774 43.1955 15.9924C43.1955 12.5973 43.823 9.70895 45.078 7.32732C46.333 4.94569 48.0411 3.13159 50.2024 1.88504C52.3638 0.628347 54.804 0 57.5231 0C60.2223 0 62.6525 0.628347 64.8138 1.88504C66.9851 3.13159 68.6983 4.94569 69.9532 7.32732C71.2182 9.70895 71.8506 12.5973 71.8506 15.9924ZM65.2919 15.9924C65.2919 13.7932 64.9682 11.9386 64.3208 10.4285C63.6834 8.91845 62.782 7.77324 61.6167 6.99288C60.4513 6.21251 59.0868 5.82233 57.5231 5.82233C55.9594 5.82233 54.5948 6.21251 53.4295 6.99288C52.2642 7.77324 51.3578 8.91845 50.7104 10.4285C50.073 11.9386 49.7542 13.7932 49.7542 15.9924C49.7542 18.1916 50.073 20.0462 50.7104 21.5563C51.3578 23.0664 52.2642 24.2116 53.4295 24.9919C54.5948 25.7723 55.9594 26.1625 57.5231 26.1625C59.0868 26.1625 60.4513 25.7723 61.6167 24.9919C62.782 24.2116 63.6834 23.0664 64.3208 21.5563C64.9682 20.0462 65.2919 18.1916 65.2919 15.9924Z" fill="#4723B6"/>
<path d="M76.6427 31.5591V0.425654H88.7143C91.025 0.425654 92.9971 0.84624 94.6305 1.68741C96.2739 2.51845 97.5239 3.69913 98.3805 5.22946C99.247 6.74964 99.6803 8.5384 99.6803 10.5957C99.6803 12.6632 99.2421 14.4418 98.3656 15.9316C97.4891 17.4112 96.2192 18.5463 94.5558 19.3368C92.9025 20.1273 90.9005 20.5226 88.5499 20.5226H80.4673V15.2323H87.5041C88.7392 15.2323 89.7651 15.06 90.5818 14.7154C91.3985 14.3709 92.0061 13.854 92.4045 13.1648C92.8128 12.4757 93.017 11.6193 93.017 10.5957C93.017 9.562 92.8128 8.69042 92.4045 7.981C92.0061 7.27158 91.3935 6.73444 90.5668 6.3696C89.7501 5.99462 88.7192 5.80713 87.4742 5.80713H83.1117V31.5591H76.6427ZM93.1664 17.391L100.771 31.5591H93.6296L86.1894 17.391H93.1664Z" fill="#4723B6"/>
<path d="M104.252 31.5591V0.425654H110.721V14.153H111.124L122.135 0.425654H129.889L118.535 14.3658L130.024 31.5591H122.285L113.903 18.7591L110.721 22.7116V31.5591H104.252Z" fill="#4723B6"/>
<path d="M149.61 9.37957C149.491 8.15329 148.978 7.20063 148.071 6.52162C147.165 5.8426 145.935 5.50309 144.381 5.50309C143.325 5.50309 142.434 5.65511 141.707 5.95915C140.98 6.25305 140.422 6.6635 140.033 7.1905C139.655 7.7175 139.466 8.31544 139.466 8.98432C139.446 9.54173 139.56 10.0282 139.809 10.4437C140.068 10.8592 140.422 11.219 140.87 11.523C141.318 11.8169 141.836 12.0754 142.424 12.2983C143.012 12.5112 143.639 12.6936 144.306 12.8456L147.055 13.5145C148.39 13.8185 149.615 14.2239 150.731 14.7306C151.846 15.2374 152.812 15.8606 153.629 16.6005C154.446 17.3403 155.078 18.2119 155.526 19.2152C155.985 20.2185 156.219 21.3688 156.229 22.666C156.219 24.5713 155.74 26.2233 154.794 27.6219C153.858 29.0103 152.503 30.0896 150.731 30.8599C148.968 31.62 146.841 32 144.351 32C141.881 32 139.73 31.6149 137.897 30.8447C136.074 30.0744 134.65 28.9343 133.624 27.4242C132.608 25.904 132.075 24.0241 132.026 21.7843H138.285C138.355 22.8282 138.649 23.6998 139.167 24.3991C139.695 25.0882 140.397 25.6101 141.274 25.9648C142.16 26.3094 143.161 26.4817 144.276 26.4817C145.372 26.4817 146.323 26.3196 147.13 25.9953C147.947 25.6709 148.579 25.22 149.027 24.6423C149.476 24.0646 149.7 23.4008 149.7 22.6508C149.7 21.9515 149.496 21.3637 149.087 20.8874C148.689 20.4111 148.101 20.0057 147.324 19.6713C146.557 19.3368 145.616 19.0328 144.501 18.7591L141.169 17.9078C138.589 17.2694 136.552 16.2711 135.058 14.9131C133.564 13.555 132.822 11.7257 132.832 9.42518C132.822 7.54014 133.315 5.89327 134.311 4.48456C135.317 3.07585 136.697 1.97625 138.45 1.18575C140.203 0.395251 142.195 0 144.426 0C146.697 0 148.679 0.395251 150.372 1.18575C152.075 1.97625 153.4 3.07585 154.346 4.48456C155.292 5.89327 155.78 7.52494 155.81 9.37957H149.61Z" fill="#4723B6"/>
<path d="M160.58 31.5591V0.425654H167.049V13.2713H180.181V0.425654H186.635V31.5591H180.181V18.6983H167.049V31.5591H160.58Z" fill="#4723B6"/>
<path d="M220.086 15.9924C220.086 19.3875 219.454 22.2759 218.189 24.6575C216.934 27.0391 215.221 28.8583 213.049 30.115C210.888 31.3615 208.458 31.9848 205.759 31.9848C203.04 31.9848 200.599 31.3565 198.438 30.0998C196.277 28.8431 194.569 27.0239 193.314 24.6423C192.059 22.2606 191.431 19.3774 191.431 15.9924C191.431 12.5973 192.059 9.70895 193.314 7.32732C194.569 4.94569 196.277 3.13159 198.438 1.88504C200.599 0.628347 203.04 0 205.759 0C208.458 0 210.888 0.628347 213.049 1.88504C215.221 3.13159 216.934 4.94569 218.189 7.32732C219.454 9.70895 220.086 12.5973 220.086 15.9924ZM213.528 15.9924C213.528 13.7932 213.204 11.9386 212.556 10.4285C211.919 8.91845 211.018 7.77324 209.852 6.99288C208.687 6.21251 207.322 5.82233 205.759 5.82233C204.195 5.82233 202.83 6.21251 201.665 6.99288C200.5 7.77324 199.593 8.91845 198.946 10.4285C198.309 11.9386 197.99 13.7932 197.99 15.9924C197.99 18.1916 198.309 20.0462 198.946 21.5563C199.593 23.0664 200.5 24.2116 201.665 24.9919C202.83 25.7723 204.195 26.1625 205.759 26.1625C207.322 26.1625 208.687 25.7723 209.852 24.9919C211.018 24.2116 211.919 23.0664 212.556 21.5563C213.204 20.0462 213.528 18.1916 213.528 15.9924Z" fill="#4723B6"/>
<path d="M224.878 31.5591V0.425654H236.95C239.271 0.425654 241.248 0.876644 242.881 1.77862C244.515 2.67047 245.76 3.91196 246.616 5.50309C247.483 7.08409 247.916 8.90831 247.916 10.9758C247.916 13.0432 247.478 14.8675 246.601 16.4485C245.725 18.0295 244.455 19.2608 242.791 20.1425C241.138 21.0242 239.136 21.4651 236.785 21.4651H229.091V16.19H235.74C236.985 16.19 238.011 15.9721 238.817 15.5363C239.634 15.0904 240.242 14.4773 240.64 13.6969C241.048 12.9064 241.253 11.9994 241.253 10.9758C241.253 9.94204 241.048 9.04006 240.64 8.26984C240.242 7.48947 239.634 6.88646 238.817 6.46081C238.001 6.02502 236.965 5.80713 235.71 5.80713H231.347V31.5591H224.878Z" fill="#4723B6"/>
<path d="M276.866 31.5591H269.934L280.496 0.425654H288.833L299.381 31.5591H292.449L284.784 7.54014H284.545L276.866 31.5591ZM276.433 19.3216H292.807V24.4599H276.433V19.3216Z" fill="#4723B6"/>
<path d="M321.914 10.4893C321.705 9.74949 321.411 9.0958 321.033 8.52827C320.654 7.95059 320.191 7.46414 319.643 7.06889C319.105 6.6635 318.488 6.3544 317.791 6.14157C317.103 5.92874 316.341 5.82233 315.505 5.82233C313.941 5.82233 312.567 6.21758 311.381 7.00808C310.206 7.79858 309.29 8.94885 308.632 10.4589C307.975 11.9588 307.646 13.7932 307.646 15.962C307.646 18.1308 307.97 19.9753 308.617 21.4955C309.265 23.0157 310.181 24.1761 311.366 24.9767C312.552 25.7672 313.951 26.1625 315.565 26.1625C317.029 26.1625 318.279 25.899 319.315 25.372C320.36 24.8348 321.157 24.0798 321.705 23.1069C322.263 22.134 322.542 20.9837 322.542 19.6561L323.856 19.8537H315.968V14.8979H328.772V18.82C328.772 21.5563 328.204 23.9075 327.068 25.8736C325.933 27.8296 324.369 29.3397 322.377 30.4038C320.385 31.4578 318.104 31.9848 315.535 31.9848C312.666 31.9848 310.146 31.3413 307.975 30.0542C305.804 28.7569 304.111 26.9175 302.895 24.5359C301.69 22.1441 301.088 19.3064 301.088 16.0228C301.088 13.4993 301.446 11.2494 302.163 9.27316C302.89 7.28678 303.906 5.60444 305.211 4.22613C306.516 2.84782 308.035 1.79889 309.768 1.07934C311.501 0.359779 313.378 0 315.4 0C317.133 0 318.747 0.258433 320.241 0.775298C321.735 1.28203 323.06 2.00158 324.215 2.93397C325.38 3.86635 326.331 4.97609 327.068 6.26318C327.806 7.54014 328.279 8.94885 328.488 10.4893H321.914Z" fill="#4723B6"/>
<path d="M333.631 31.5591V0.425654H354.248V5.85273H340.1V13.2713H353.187V18.6983H340.1V26.1321H354.308V31.5591H333.631Z" fill="#4723B6"/>
<path d="M384.984 0.425654V31.5591H379.396L366.085 11.9639H365.86V31.5591H359.391V0.425654H365.069L378.276 20.0057H378.545V0.425654H384.984Z" fill="#4723B6"/>
<path d="M401.175 31.5591H390.329V0.425654H401.265C404.342 0.425654 406.992 1.04893 409.213 2.29549C411.434 3.53191 413.142 5.31053 414.337 7.63135C415.542 9.95218 416.145 12.7291 416.145 15.962C416.145 19.2051 415.542 21.9921 414.337 24.323C413.142 26.654 411.424 28.4428 409.183 29.6893C406.952 30.9359 404.283 31.5591 401.175 31.5591ZM396.798 25.9192H400.906C402.818 25.9192 404.427 25.5747 405.732 24.8855C407.047 24.1862 408.033 23.1069 408.69 21.6475C409.357 20.178 409.691 18.2828 409.691 15.962C409.691 13.6614 409.357 11.7815 408.69 10.3221C408.033 8.86271 407.051 7.78844 405.747 7.09929C404.442 6.41014 402.833 6.06556 400.921 6.06556H396.798V25.9192Z" fill="#4723B6"/>
<path d="M424.485 31.5591H417.553L428.116 0.425654H436.452L447 31.5591H440.068L432.404 7.54014H432.165L424.485 31.5591ZM424.052 19.3216H440.426V24.4599H424.052V19.3216Z" fill="#4723B6"/>
</svg>
