<svg width="120" height="46" viewBox="0 0 120 46" fill="none" xmlns="http://www.w3.org/2000/svg">
<path d="M119.395 0H0V45.9465H119.395V0Z" fill="#00CDE9"/>
<path d="M38.2526 14.0965C37.5197 12.7917 35.3422 12.5457 31.9611 13.3746C30.4738 13.7382 28.8313 14.2944 27.1086 15.011C24.851 14.134 22.3846 14.1767 20.1537 15.1393C17.9014 16.1072 16.1626 17.8987 15.2585 20.1767C14.8038 21.3265 14.5844 22.5243 14.6058 23.7276C13.6161 24.5297 12.728 25.3265 11.9629 26.1072C9.52335 28.5885 8.62991 30.5885 9.37891 31.8826C10.1279 33.1768 12.3053 33.4013 15.6758 32.5297C18.5487 31.7864 21.9994 30.3265 25.4876 28.3907C25.9691 28.4548 26.3757 28.6955 26.8625 29.1607L27.4671 29.8933L27.1354 29.0056C26.8733 27.9147 27.0338 27.3211 27.8041 26.5083L28.5371 25.904L27.649 26.2356C26.5576 26.4976 25.9637 26.3372 25.1506 25.5671L24.546 24.8345L24.8777 25.7222C25.0543 26.4602 25.0382 26.9682 24.7707 27.4709C22.8554 28.5297 20.9562 29.4334 19.1693 30.15C17.9923 29.3211 17.0186 28.1714 16.4087 26.7543C14.6486 22.6741 16.5318 17.9414 20.6138 16.1821C18.5755 17.0644 17.6339 19.4281 18.5113 21.4709C19.394 23.5083 21.7587 24.4495 23.8024 23.5725C25.8407 22.6901 28.2107 23.6313 29.0935 25.6741C29.9762 27.7115 29.0346 30.0805 26.9909 30.9628C25.3753 31.658 23.6526 31.7864 22.0529 31.4281C21.5126 31.6741 20.9829 31.904 20.4587 32.1179C21.5447 32.5404 22.6735 32.7543 23.8077 32.7543C25.0436 32.7543 26.274 32.503 27.4403 32.0003C31.3351 30.3211 33.4751 26.257 32.8866 22.2463C33.9084 21.4441 34.8286 20.6366 35.6151 19.8505C38.0653 17.3907 38.9855 15.4013 38.2526 14.0965ZM17.9174 30.6206C17.0347 30.9361 16.184 31.2035 15.3869 31.412C12.2144 32.2302 10.7164 31.8933 10.3793 31.3051C10.0369 30.7169 10.4917 29.2516 12.7922 26.9147C13.37 26.3265 14.028 25.7222 14.7449 25.1179C14.868 25.8291 15.0766 26.5243 15.3655 27.2035C15.9433 28.5457 16.8153 29.7115 17.9174 30.6206ZM32.5923 20.9789C32.4907 20.6259 32.3623 20.2783 32.2125 19.9308C31.6294 18.5832 30.752 17.4174 29.6499 16.5029C28.1679 17.0377 26.5951 17.7168 24.974 18.519C24.3267 19.4174 24.2357 20.2409 24.5514 21.5404L25.0436 22.8505L24.1501 21.7703C22.9517 20.6313 22.069 20.3906 20.4587 20.781L19.1479 21.273L20.2286 20.38C21.3681 19.1821 21.6089 18.2997 21.2183 16.6901L20.7262 15.3799L21.6196 16.4602C22.513 17.3051 23.2246 17.658 24.1929 17.6206C25.6749 16.8773 27.1247 16.2302 28.5103 15.7008C28.5103 15.7008 28.505 15.6955 28.4996 15.6955C29.8157 15.1874 31.073 14.781 32.2285 14.4976C35.4118 13.7168 36.9044 14.0698 37.2361 14.6634C37.5678 15.257 37.097 16.7168 34.7751 19.027C34.1385 19.6687 33.4055 20.3211 32.5923 20.9789Z" fill="white"/>
<path d="M40.0715 28.0912H45.5177C46.0634 28.0912 46.2667 27.7382 46.2667 27.3425V26.2195C46.2667 25.7543 45.9885 25.4708 45.5177 25.4708H44.3568C41.7728 25.4708 39.5044 24.6847 39.5044 21.5403C39.5044 18.2088 41.4732 17.6099 44.2979 17.6099H48.8882V20.2302H43.2547C42.7679 20.2302 42.5057 20.5671 42.5057 20.9788V22.1018C42.5057 22.551 42.7304 22.8505 43.2547 22.8505H44.4156C46.9997 22.8505 49.2681 23.6366 49.2681 26.7649C49.2681 30.1179 47.2993 30.7115 44.4745 30.7115H40.0715V28.0912Z" fill="white"/>
<path d="M58.4593 25.4708H54.1366C53.6123 25.4708 53.3876 25.7703 53.3876 26.2195V27.3425C53.3876 27.7542 53.6497 28.0912 54.1366 28.0912H59.9573V30.7115H55.4473C52.4513 30.7115 50.3916 30.1125 50.3916 26.781C50.3916 25.5992 50.3916 22.7168 50.3916 21.5403C50.3916 18.2088 52.4513 17.6099 55.4473 17.6099H59.5828V20.2302H54.1366C53.6658 20.2302 53.3876 20.5671 53.3876 20.9788V22.1018C53.3876 22.551 53.6123 22.8505 54.1366 22.8505H58.4593V25.4708Z" fill="white"/>
<path d="M68.9662 25.4708H64.6434C64.1191 25.4708 63.8944 25.7703 63.8944 26.2195V27.3425C63.8944 27.7542 64.1566 28.0912 64.6434 28.0912H70.4642V30.7115H65.9542C62.9582 30.7115 60.8984 30.1125 60.8984 26.781C60.8984 25.5992 60.8984 22.7168 60.8984 21.5403C60.8984 18.2088 62.9582 17.6099 65.9542 17.6099H70.0897V20.2302H64.6434C64.1726 20.2302 63.8944 20.5671 63.8944 20.9788V22.1018C63.8944 22.551 64.1191 22.8505 64.6434 22.8505H68.9662V25.4708Z" fill="white"/>
<path d="M71.7754 17.6099H77.5801C81.8868 17.6099 83.0103 20.2302 83.0103 24.1607C83.0103 28.0912 81.8868 30.7115 77.5801 30.7115H71.7754V17.6099ZM78.5163 28.0912C79.4151 28.0912 80.0143 27.5083 80.0143 26.5938V21.7275C80.0143 20.8291 79.4151 20.2302 78.5163 20.2302H74.7714V28.0912H78.5163Z" fill="white"/>
<path d="M87.9538 17.6099H91.1157L95.8718 30.7115H92.7099L91.977 28.6901H87.0871L86.3542 30.7115H83.1924L87.9538 17.6099ZM91.0247 26.0698L89.5481 21.9735L88.0501 26.0698H91.0247Z" fill="white"/>
<path d="M102.522 17.3315C106.395 17.3315 108.985 20.0642 108.985 24.1658C108.985 28.262 106.401 30.9947 102.522 30.9947C98.6431 30.9947 96.0591 28.262 96.0591 24.1658C96.0644 20.0642 98.6485 17.3315 102.522 17.3315ZM104.491 28.3743C105.389 28.3743 105.989 27.7754 105.989 26.877V21.4492C105.989 20.5508 105.389 19.9519 104.491 19.9519H100.558C99.6596 19.9519 99.0604 20.5508 99.0604 21.4492V26.877C99.0604 27.7754 99.6596 28.3743 100.558 28.3743H104.491Z" fill="white"/>
</svg>
