<svg width="60" height="60" viewBox="0 0 60 60" fill="none" xmlns="http://www.w3.org/2000/svg">
<circle cx="30" cy="30" r="30" fill="#0DFFA8"/>
<path d="M16.4 43.2121C15.76 43.2121 15.2 42.9758 14.72 42.503C14.24 42.0303 14 41.4788 14 40.8485V20.3636C14 19.7333 14.24 19.1818 14.72 18.7091C15.2 18.2364 15.76 18 16.4 18H43.6C44.24 18 44.8 18.2364 45.28 18.7091C45.76 19.1818 46 19.7333 46 20.3636V40.8485C46 41.4788 45.76 42.0303 45.28 42.503C44.8 42.9758 44.24 43.2121 43.6 43.2121H16.4ZM30 31.3152L16.4 22.5303V40.8485H43.6V22.5303L30 31.3152ZM30 28.9515L43.44 20.3636H16.6L30 28.9515ZM16.4 22.5303V20.3636V40.8485V22.5303Z" fill="white"/>
</svg>
