<svg width="38" height="62" viewBox="0 0 38 62" fill="none" xmlns="http://www.w3.org/2000/svg">
<g clip-path="url(#clip0_55_116)">
<path d="M18.9153 62C13.4835 62 9.05291 61.1948 5.6128 59.5951C2.1727 57.9955 0.457971 55.9557 0.457971 53.4757C0.457971 52.08 1.08635 50.7595 2.34311 49.5248C3.59986 48.2902 5.32524 47.281 7.52989 46.4973L8.91445 50.9957C8.09437 51.2533 7.33818 51.6184 6.6459 52.08C5.95362 52.5416 5.39979 53.014 4.99508 53.4757C5.86841 54.5063 7.66835 55.4081 10.4162 56.1919C13.164 56.9756 15.9864 57.3513 18.9153 57.3513C21.8441 57.3513 24.6772 56.9648 27.4463 56.1919C30.2154 55.4189 32.0366 54.5171 32.91 53.4757C32.5053 53.0677 31.9621 52.6275 31.2911 52.1552C30.6201 51.6935 29.8533 51.307 28.98 50.9957L30.29 46.4973C32.4946 47.2703 34.22 48.2795 35.4768 49.5248C36.7335 50.7702 37.3619 52.08 37.3619 53.4757C37.3619 55.9557 35.6472 57.9955 32.2071 59.5951C28.7669 61.1948 24.347 62 18.9153 62ZM18.9153 45.3378C20.0016 43.3195 21.1412 41.4729 22.3447 39.7981C23.5482 38.1233 24.7411 36.5344 25.9126 35.0313C28.1705 32.0897 29.9492 29.556 31.2592 27.441C32.5692 25.3261 33.2188 22.5347 33.2188 19.067C33.2188 15.0518 31.8343 11.6485 29.0545 8.85714C26.2747 6.0658 22.8879 4.65939 18.9046 4.65939C14.9213 4.65939 11.5451 6.05506 8.776 8.85714C6.00687 11.6592 4.62231 15.0625 4.62231 19.067C4.62231 22.5347 5.27199 25.3261 6.582 27.441C7.89201 29.556 9.67064 32.0897 11.9285 35.0313C13.1107 36.5344 14.2929 38.1233 15.4965 39.7981C16.6893 41.4729 17.8289 43.3195 18.9153 45.3378ZM18.9153 53.787C18.2975 53.787 17.765 53.6152 17.2964 53.261C16.8384 52.9067 16.4976 52.445 16.2952 51.8438C15.0704 48.0755 13.5261 44.9513 11.6836 42.4713C9.84104 39.9913 8.04111 37.6187 6.30508 35.3427C4.55841 33.0667 3.07799 30.7048 1.84253 28.2462C0.617728 25.7984 0 22.728 0 19.0563C0 13.742 1.83188 9.2329 5.485 5.53974C9.13811 1.84658 13.6113 0 18.9153 0C24.2192 0 28.6924 1.84658 32.3455 5.529C35.9986 9.21143 37.8305 13.7313 37.8305 19.067C37.8305 22.7387 37.2234 25.7877 35.9986 28.2355C34.7738 30.6833 33.2828 33.0452 31.5254 35.3427C29.7787 37.6187 27.9895 39.9913 26.1469 42.4713C24.3044 44.9513 22.7707 48.0755 21.5459 51.8331C21.3329 52.4128 20.9921 52.8852 20.5341 53.2502C20.0655 53.6045 19.533 53.787 18.9153 53.787ZM18.9259 23.7157C20.1933 23.7157 21.2797 23.254 22.1743 22.3415C23.0689 21.4289 23.5163 20.3339 23.5163 19.0455C23.5163 17.768 23.0583 16.6729 22.153 15.7711C21.2477 14.8693 20.1614 14.4184 18.8833 14.4184C17.6159 14.4184 16.5295 14.88 15.6349 15.7926C14.7403 16.7051 14.2929 17.8002 14.2929 19.0885C14.2929 20.3661 14.7509 21.4611 15.6562 22.3629C16.5721 23.2648 17.6585 23.7157 18.9259 23.7157Z" fill="black"/>
</g>
<defs>
<clipPath id="clip0_55_116">
<rect width="37.8305" height="62" fill="white"/>
</clipPath>
</defs>
</svg>
