<svg width="236" height="47" viewBox="0 0 236 47" fill="none" xmlns="http://www.w3.org/2000/svg">
<path d="M73.1488 35.4151H86.0263C87.3093 35.4151 87.7949 34.5912 87.7949 33.679V31.072C87.7949 29.9892 87.1294 29.3359 86.0263 29.3359H83.2805C77.1715 29.3359 71.8179 27.5116 71.8179 20.2142C71.8179 12.4814 76.4641 11.0925 83.1486 11.0925H93.9878V17.1717H80.6667C79.5156 17.1717 78.8981 17.9544 78.8981 18.9078V21.5148C78.8981 22.5564 79.4317 23.2509 80.6667 23.2509H83.4124C89.5215 23.2509 94.8751 25.0752 94.8751 32.3314C94.8751 40.1054 90.2289 41.4943 83.5443 41.4943H73.1428V35.4151H73.1488Z" fill="black"/>
<path d="M116.607 29.336H106.386C105.145 29.336 104.617 30.0304 104.617 31.072V33.6791C104.617 34.6324 105.235 35.4151 106.386 35.4151H120.145V41.4943H109.479C102.399 41.4943 97.531 40.1055 97.531 32.3726C97.531 29.6361 97.531 22.9449 97.531 20.2084C97.531 12.4755 102.399 11.0867 109.479 11.0867H119.257V17.1658H106.38C105.271 17.1658 104.611 17.9485 104.611 18.9019V21.509C104.611 22.5506 105.145 23.245 106.38 23.245H116.601V29.336H116.607Z" fill="black"/>
<path d="M141.433 29.336H131.211C129.97 29.336 129.443 30.0304 129.443 31.072V33.6791C129.443 34.6324 130.06 35.4151 131.211 35.4151H144.97V41.4943H134.305C127.225 41.4943 122.357 40.1055 122.357 32.3726C122.357 29.6361 122.357 22.9449 122.357 20.2084C122.357 12.4755 127.225 11.0867 134.305 11.0867H144.083V17.1658H131.205C130.096 17.1658 129.437 17.9485 129.437 18.9019V21.509C129.437 22.5506 129.97 23.245 131.205 23.245H141.427V29.336H141.433Z" fill="black"/>
<path d="M148.076 11.0925H161.793C171.972 11.0925 174.622 17.1717 174.622 26.2934C174.622 35.4151 171.966 41.4943 161.793 41.4943H148.076V11.0925ZM164.005 35.4151C166.127 35.4151 167.548 34.0674 167.548 31.943V20.6497C167.548 18.5664 166.133 17.1776 164.005 17.1776H155.156V35.421H164.005V35.4151Z" fill="black"/>
<path d="M186.307 11.0925H193.783L205.023 41.5002H197.547L195.821 36.8099H184.274L182.548 41.5002H175.072L186.307 11.0925ZM193.567 30.7248L190.072 21.2147L186.534 30.7248H193.567Z" fill="black"/>
<path d="M220.737 10.4395C229.897 10.4395 236 16.7834 236 26.2936C236 35.8037 229.891 42.1477 220.737 42.1477C211.576 42.1477 205.467 35.8037 205.467 26.2936C205.467 16.7834 211.576 10.4395 220.737 10.4395ZM225.383 36.0685C227.505 36.0685 228.92 34.6796 228.92 32.5964V19.9966C228.92 17.9134 227.505 16.5245 225.383 16.5245H216.09C213.968 16.5245 212.553 17.9134 212.553 19.9966V32.5964C212.553 34.6796 213.968 36.0685 216.09 36.0685H225.383Z" fill="black"/>
<path d="M68.8491 2.94196C67.1165 -0.0829114 61.9787 -0.659638 53.9872 1.27063C50.4741 2.11807 46.5893 3.40688 42.5126 5.06055C37.1709 3.03024 31.3437 3.13028 26.08 5.36069C20.7623 7.61463 16.6496 11.7635 14.5094 17.0482C13.4303 19.7141 12.9207 22.5036 12.9686 25.2872C10.6305 27.1468 8.52626 29.0006 6.71573 30.8073C0.954424 36.5687 -1.16185 41.2002 0.606707 44.2074C2.37527 47.2146 7.51908 47.7325 15.4866 45.7139C22.0812 44.0426 29.9768 40.7941 37.9743 36.4863C38.4958 36.2038 39.1133 36.1567 39.6649 36.3686C40.4023 36.6511 41.1097 37.1513 41.9071 37.8928L43.3339 39.5936L42.5485 37.5279C41.9251 34.9974 42.3027 33.6144 44.1313 31.7254L45.8638 30.3247L43.7656 31.1015C41.1877 31.7136 39.7788 31.3428 37.8544 29.5479L36.4275 27.8472L37.2129 29.9128C37.5426 31.2546 37.5906 32.2727 37.2908 33.2201C37.1409 33.6909 36.7932 34.0735 36.3496 34.3089C32.0331 36.6216 27.7586 38.6108 23.7239 40.1938C20.9361 38.2753 18.64 35.6035 17.1952 32.308C13.0346 22.839 17.483 11.8518 27.1291 7.76764C22.309 9.80972 20.0848 15.3004 22.1651 20.0378C24.2455 24.7693 29.8389 26.9526 34.665 24.9106C39.557 22.839 45.2523 25.1165 47.2547 30.0011C49.2391 34.8385 46.6012 40.3527 41.6613 42.2771C37.9982 43.7013 34.1314 43.9308 30.5343 43.1363C29.2574 43.7013 27.9984 44.2368 26.7634 44.737C29.3233 45.7198 31.9971 46.2141 34.671 46.2141C37.5846 46.2141 40.4982 45.6315 43.256 44.4604C52.4525 40.5646 57.5124 31.1251 56.1275 21.8268C58.5435 19.9613 60.7137 18.0958 62.5782 16.2714C68.4115 10.5807 70.5817 5.96684 68.8491 2.94196ZM20.7923 41.2884C18.706 42.0241 16.6976 42.642 14.8031 43.1245C7.30325 45.0254 3.77213 44.2427 2.96878 42.8715C2.16544 41.5003 3.23856 38.1047 8.66414 32.6846C10.037 31.3134 11.5838 29.9187 13.2804 28.5063C13.5681 30.1482 14.0597 31.7724 14.7492 33.3437C16.1281 36.4745 18.1964 39.1757 20.7923 41.2884ZM55.48 18.9138C55.2342 18.0958 54.9405 17.2836 54.5867 16.4774C53.2079 13.3466 51.1395 10.6395 48.5377 8.5268C45.3782 9.64494 42.027 11.0397 38.5858 12.6757C37.7165 13.0877 37.021 13.788 36.6314 14.6531C35.9179 16.242 35.9179 17.9016 36.4875 20.2085L37.6505 23.2569L35.5462 20.7499C32.7106 18.1016 30.6303 17.5543 26.8293 18.4547L23.7239 19.5964L26.2778 17.5308C28.9756 14.7472 29.5331 12.7051 28.6159 8.97406L27.4528 5.91976L29.5571 8.42675C31.1998 9.96273 32.5847 10.7866 34.2033 11.0397C35.0187 11.1633 35.852 11.0044 36.5954 10.6513C39.7608 9.12118 42.8663 7.77941 45.8399 6.66126C45.8339 6.65538 45.8279 6.65538 45.8219 6.64949C48.9393 5.4725 51.9069 4.53091 54.6347 3.87179C62.1586 2.05333 65.6777 2.87723 66.4691 4.25431C67.2604 5.63139 66.1453 9.01525 60.6538 14.3765C59.131 15.8654 57.3925 17.3896 55.48 18.9138Z" fill="black"/>
</svg>
