<svg width="245" height="245" viewBox="0 0 245 245" fill="none" xmlns="http://www.w3.org/2000/svg">
<rect width="245" height="245" rx="42" fill="#090808"/>
<g clip-path="url(#clip0_55_238)">
<path d="M57.8655 131.399C56.7674 132.148 55.0493 132.791 52.7114 133.319C55.4302 133.768 57.3607 134.57 58.4943 135.715C59.6278 136.86 60.1946 138.56 60.1946 140.815C60.1946 141.493 60.1769 142.145 60.1415 142.788V143.466C60.1415 145.007 60.5931 145.773 61.5053 145.773C61.7355 145.773 62.0809 145.729 62.5503 145.632C63.0196 145.536 63.3739 145.492 63.5953 145.492C64.4277 145.492 65.1007 145.844 65.6055 146.531C66.1192 147.227 66.3671 148.134 66.3671 149.261C66.3671 150.503 65.9952 151.49 65.2602 152.221C64.5251 152.952 63.551 153.322 62.3377 153.322C61.9215 153.322 61.275 153.278 60.4071 153.181C59.5393 153.084 58.8928 153.04 58.4766 153.04C58.0249 153.04 57.3519 153.084 56.4663 153.181C55.5807 153.278 54.9077 153.322 54.456 153.322C53.0568 153.322 51.9321 152.749 51.0819 151.604C50.2318 150.459 49.8067 148.944 49.8067 147.068C49.8067 146.883 49.8244 146.751 49.8598 146.672L49.9749 143.404V143.008C49.9749 141.052 49.4702 139.705 48.4694 138.947C47.4687 138.199 45.6621 137.82 43.0585 137.82C42.0047 137.82 41.3405 138.102 41.0748 138.665C40.8888 139.044 40.7914 139.74 40.7914 140.753V142.048C40.7914 144.602 41.2608 145.879 42.2084 145.879C42.474 145.879 42.8814 145.817 43.4305 145.685C43.9795 145.553 44.4046 145.492 44.7057 145.492C45.5027 145.492 46.1669 145.853 46.716 146.566C47.2651 147.28 47.5396 148.16 47.5396 149.217C47.5396 151.957 46.2201 153.331 43.5722 153.331C42.6689 153.331 41.4379 153.234 39.8881 153.049C38.3383 152.864 37.0011 152.767 35.8676 152.767C34.6543 152.767 33.2639 152.864 31.6699 153.049C30.0758 153.234 28.7386 153.331 27.6493 153.331C24.8863 153.331 23.5136 151.957 23.5136 149.217C23.5136 148.169 23.8059 147.28 24.3904 146.566C24.9749 145.853 25.701 145.492 26.5689 145.492C26.9054 145.492 27.3837 145.562 27.9858 145.685C28.588 145.817 29.022 145.879 29.2877 145.879C30.3061 145.879 30.8197 144.602 30.8197 142.048V126.44C30.8197 125.233 30.7843 124.467 30.7046 124.132C30.5186 123.155 30.0404 122.67 29.2877 122.67C28.9866 122.67 28.5438 122.741 27.9593 122.864C27.3748 122.996 26.9143 123.058 26.5689 123.058C25.701 123.058 24.9749 122.697 24.3904 121.983C23.8059 121.27 23.5136 120.389 23.5136 119.332C23.5136 118.134 23.8856 117.13 24.6206 116.346C25.3557 115.553 26.3121 115.166 27.4811 115.166C27.7113 115.166 27.8796 115.183 27.9947 115.219L32.0153 115.615C33.1488 115.73 34.3621 115.782 35.6462 115.782C37.8778 115.782 40.694 115.668 44.0947 115.448C46.3618 115.298 48.0444 115.219 49.1425 115.219C52.7291 115.219 55.5718 116.108 57.6707 117.896C59.7695 119.684 60.8145 122.115 60.8145 125.198C60.8057 128.017 59.8227 130.078 57.8655 131.399ZM44.998 122.714C43.4836 122.714 42.5006 122.811 42.049 122.996C41.2165 123.375 40.8003 124.176 40.8003 125.418V128.801C40.8003 129.664 40.942 130.227 41.2254 130.492C41.5087 130.756 42.049 130.888 42.8371 130.888C47.7521 130.888 50.2052 129.443 50.2052 126.546C50.2141 123.991 48.4694 122.714 44.998 122.714Z" fill="white"/>
<path d="M95.0424 136.525C95.0424 138.102 94.8476 139.159 94.4491 139.678C94.0506 140.207 93.2712 140.471 92.0934 140.471H78.2694C77.5875 140.471 77.1624 140.541 76.9942 140.665C76.8259 140.797 76.7374 141.123 76.7374 141.651C76.7374 143.228 77.251 144.549 78.2694 145.597C79.2878 146.654 80.5719 147.174 82.1217 147.174C83.7069 147.174 85.3364 146.311 86.9924 144.584C88.126 143.378 89.3747 142.779 90.7296 142.779C91.8632 142.779 92.7753 143.096 93.4749 143.739C94.1745 144.382 94.5199 145.183 94.5199 146.161C94.5199 148.337 93.3244 150.195 90.9244 151.71C88.5245 153.234 85.6021 153.991 82.166 153.991C77.6672 153.991 74.0806 152.635 71.3973 149.931C68.7139 147.227 67.3767 143.615 67.3767 139.106C67.3767 134.561 68.7051 130.888 71.3707 128.087C74.0363 125.286 77.5167 123.886 81.8295 123.886C85.8323 123.886 89.0381 125.031 91.4381 127.321C93.8469 129.628 95.0424 132.694 95.0424 136.525ZM77.0207 133.707C77.0207 133.936 77.0739 134.121 77.189 134.27C77.3041 134.42 77.7026 134.499 78.3757 134.499H84.7253C85.2921 134.499 85.6375 134.438 85.7703 134.305C85.9032 134.173 85.9652 133.936 85.9652 133.601C85.9652 132.623 85.5312 131.769 84.6633 131.038C83.7955 130.307 82.777 129.937 81.5992 129.937C80.0849 129.937 78.8628 130.518 77.9152 131.681C77.3218 132.429 77.0207 133.108 77.0207 133.707Z" fill="white"/>
<path d="M109.947 117.077V127.735C112.4 125.18 115.145 123.903 118.165 123.903C121.486 123.903 124.178 125.251 126.242 127.937C128.305 130.624 129.332 134.147 129.332 138.507C129.332 143.201 128.181 146.962 125.879 149.781C123.576 152.6 120.494 154.009 116.642 154.009C112.79 154.009 109.743 152.503 107.52 149.499C107.591 150.098 107.635 150.574 107.635 150.908C107.635 152.635 106.599 153.498 104.518 153.498C102.366 153.498 101.286 152.406 101.286 150.23V124.52C101.286 122.6 100.967 121.648 100.32 121.648C100.055 121.648 99.7183 121.728 99.3021 121.877C99.0718 121.957 98.7707 121.992 98.3988 121.992C96.5833 121.992 95.68 120.961 95.68 118.892C95.68 117.764 95.99 116.857 96.6187 116.161C97.2387 115.465 98.08 115.122 99.1427 115.122C99.6297 115.122 100.347 115.175 101.295 115.289C102.242 115.404 102.96 115.457 103.447 115.457C104.58 115.457 105.581 115.404 106.449 115.289C107.317 115.175 107.963 115.122 108.379 115.122C109.415 115.104 109.947 115.765 109.947 117.077ZM115.278 146.839C118.564 146.839 120.211 144.206 120.211 138.947C120.211 133.689 118.608 131.055 115.393 131.055C113.843 131.055 112.568 131.795 111.567 133.284C110.567 134.772 110.062 136.64 110.062 138.894C110.062 144.197 111.798 146.839 115.278 146.839Z" fill="white"/>
<path d="M157.892 154C154.793 154 152.712 152.758 151.658 150.283C149.01 152.767 145.875 154 142.253 154C139.269 154 136.886 153.216 135.115 151.657C133.335 150.098 132.45 148.019 132.45 145.43C132.45 141.484 134.168 138.93 137.604 137.767C139.074 137.283 140.774 136.869 142.705 136.525C145.388 136.076 147.212 135.556 148.178 134.975C149.143 134.394 149.621 133.504 149.621 132.297C149.621 131.434 149.249 130.712 148.514 130.131C147.779 129.549 146.858 129.259 145.769 129.259C144.52 129.259 143.9 129.655 143.9 130.439C143.9 130.703 143.918 130.967 143.953 131.232V131.461C143.953 132.509 143.511 133.398 142.625 134.112C141.739 134.825 140.632 135.186 139.313 135.186C137.798 135.186 136.55 134.737 135.576 133.83C134.593 132.931 134.106 131.804 134.106 130.448C134.106 128.422 135.177 126.819 137.338 125.656C139.49 124.493 142.457 123.912 146.238 123.912C150.321 123.912 153.358 124.529 155.36 125.771C157.512 127.127 158.592 129.637 158.592 133.328V144.998C158.592 146.205 158.893 146.804 159.495 146.804C159.796 146.804 160.08 146.786 160.346 146.751C160.461 146.716 160.593 146.698 160.744 146.698C161.612 146.698 162.347 146.998 162.958 147.597C163.56 148.196 163.861 148.927 163.861 149.799C163.861 151.041 163.303 152.053 162.188 152.846C161.063 153.604 159.637 154 157.892 154ZM149.683 141.942V140.7C149.417 140.85 147.752 141.317 144.697 142.109C142.616 142.638 141.58 143.439 141.58 144.531C141.58 146.258 142.598 147.121 144.644 147.121C148 147.121 149.683 145.395 149.683 141.942Z" fill="white"/>
<path d="M176.711 123.903C179.625 123.903 182.078 124.714 184.079 126.325C184.23 124.749 185.248 123.956 187.143 123.956C189.074 123.956 190.03 124.634 190.03 125.982C190.03 126.431 189.951 126.942 189.8 127.506C189.685 128.184 189.632 128.818 189.632 129.426C189.632 129.54 189.65 129.84 189.685 130.324C189.685 130.809 189.685 131.249 189.685 131.619V131.848C189.685 133.839 188.684 134.834 186.683 134.834C185.248 134.834 184 134.121 182.946 132.694C181.662 130.967 180.094 130.104 178.243 130.104C176.047 130.104 174.958 130.853 174.958 132.359C174.958 133.152 175.321 133.707 176.038 134.024C176.755 134.341 178.642 134.763 181.706 135.292C184.203 135.741 186.045 136.252 187.232 136.816C188.419 137.379 189.393 138.19 190.154 139.238C191.102 140.594 191.571 142.171 191.571 143.977C191.571 146.83 190.464 149.217 188.259 151.137C186.045 153.058 183.282 154.009 179.952 154.009C176.623 154.009 173.603 152.961 170.884 150.856C170.884 152.696 169.936 153.621 168.05 153.621C166.013 153.621 164.986 152.793 164.986 151.137C164.986 150.759 165.021 150.177 165.101 149.393C165.172 148.601 165.216 148.019 165.216 147.649C165.216 147.315 165.19 146.804 165.128 146.126C165.075 145.448 165.039 144.945 165.039 144.602C165.039 142.911 166.093 142.065 168.21 142.065C169.228 142.065 170.007 142.215 170.53 142.514C171.061 142.814 171.628 143.395 172.23 144.258C173.178 145.65 174.046 146.557 174.834 146.989C175.631 147.42 176.8 147.641 178.349 147.641C181.068 147.641 182.432 146.795 182.432 145.104C182.432 143.941 181.334 143.131 179.146 142.682L175.861 142.004C173.178 141.44 171.282 140.876 170.167 140.312C169.051 139.749 168.174 138.859 167.536 137.635C166.89 136.411 166.571 135.01 166.571 133.433C166.571 130.615 167.51 128.325 169.378 126.554C171.247 124.784 173.691 123.903 176.711 123.903Z" fill="white"/>
<path d="M222 136.525C222 138.102 221.805 139.159 221.407 139.678C221.008 140.207 220.229 140.471 219.051 140.471H205.218C204.536 140.471 204.111 140.541 203.943 140.665C203.775 140.797 203.686 141.123 203.686 141.651C203.686 143.228 204.2 144.549 205.218 145.597C206.237 146.654 207.521 147.174 209.07 147.174C210.656 147.174 212.285 146.311 213.941 144.584C215.075 143.378 216.323 142.779 217.678 142.779C218.812 142.779 219.724 143.096 220.424 143.739C221.123 144.382 221.469 145.183 221.469 146.161C221.469 148.337 220.273 150.195 217.873 151.71C215.473 153.234 212.551 153.991 209.115 153.991C204.616 153.991 201.029 152.635 198.346 149.931C195.663 147.227 194.325 143.615 194.325 139.106C194.325 134.561 195.654 130.888 198.319 128.087C200.985 125.286 204.465 123.886 208.778 123.886C212.781 123.886 215.987 125.031 218.387 127.321C220.796 129.628 222 132.694 222 136.525ZM203.978 133.707C203.978 133.936 204.031 134.121 204.147 134.27C204.262 134.42 204.66 134.499 205.333 134.499H211.683C212.25 134.499 212.595 134.438 212.728 134.305C212.861 134.173 212.923 133.936 212.923 133.601C212.923 132.623 212.489 131.769 211.621 131.038C210.753 130.307 209.735 129.937 208.557 129.937C207.042 129.937 205.82 130.518 204.873 131.681C204.279 132.429 203.978 133.108 203.978 133.707Z" fill="white"/>
<path d="M26.5423 112.726C25.6124 112.726 24.6914 112.365 23.9918 111.651C22.6369 110.251 22.6723 108.023 24.0804 106.666C79.9697 52.9819 167.253 52.3741 218.644 105.292C220.007 106.693 219.963 108.921 218.555 110.277C217.147 111.625 214.906 111.59 213.543 110.189C164.871 60.0634 82.0862 60.7505 29.0042 111.731C28.3135 112.391 27.4279 112.726 26.5423 112.726Z" fill="#33FF00"/>
<path d="M216.58 109.529C215.889 109.423 215.411 108.771 215.526 108.084C215.633 107.397 216.288 106.93 216.979 107.036C217.669 107.142 218.139 107.794 218.033 108.481C217.917 109.168 217.271 109.634 216.58 109.529Z" fill="#33FF00"/>
<path d="M216.784 113.061C216.536 113.061 216.279 113.043 216.031 112.999C214.765 112.797 213.649 112.118 212.896 111.088C212.143 110.057 211.833 108.789 212.037 107.529C212.453 104.922 214.924 103.143 217.546 103.557C218.812 103.76 219.928 104.438 220.68 105.468C221.433 106.499 221.743 107.767 221.54 109.027C221.15 111.378 219.104 113.061 216.784 113.061ZM216.421 110.515C217.661 110.718 218.821 109.863 219.024 108.639C219.122 108.049 218.971 107.432 218.617 106.957C218.263 106.472 217.723 106.147 217.129 106.05C215.898 105.865 214.729 106.701 214.526 107.926C214.428 108.516 214.579 109.132 214.933 109.608C215.287 110.092 215.827 110.418 216.421 110.515Z" fill="#33FF00"/>
<path d="M216.723 89.9387L209.902 91.8455L214.724 108.906L221.544 106.999L216.723 89.9387Z" fill="#33FF00"/>
<path d="M199.485 101.881L197.828 108.732L215.934 113.066L217.592 106.216L199.485 101.881Z" fill="#33FF00"/>
</g>
<defs>
<clipPath id="clip0_55_238">
<rect width="199" height="88" fill="white" transform="translate(23 66)"/>
</clipPath>
</defs>
</svg>
