<svg width="260" height="260" viewBox="0 0 260 260" fill="none" xmlns="http://www.w3.org/2000/svg">
<circle cx="130" cy="130" r="130" fill="#F98845"/>
<g clip-path="url(#clip0_55_93)">
<path d="M64.6139 185.193H62.1583C61.2609 185.193 60.8203 184.75 60.8203 183.847V181.46C60.8203 180.647 61.3424 180.114 62.1583 180.114H74.0693H74.3141V179.868V174.296V174.05H74.0693H64.3773C58.1444 174.05 54 175.51 54 182.649C54 188.443 57.4346 191.257 64.4997 191.257H66.9553C67.8038 191.257 68.2933 191.75 68.2933 192.603V194.991C68.2933 195.492 68.1219 196.337 66.9553 196.337H55.4359H55.1911V196.583V202.155V202.401H55.4359H64.7363C70.961 202.401 75.1136 200.932 75.1136 193.752C75.1136 187.991 71.6789 185.193 64.6139 185.193Z" fill="black"/>
<path d="M86.5596 196.337C85.7519 196.337 85.2217 195.812 85.2217 194.991V192.603C85.2217 191.701 85.6622 191.257 86.5596 191.257H95.6969H95.9416V191.011V185.439V185.193H95.6969H86.5596C85.6622 185.193 85.2217 184.75 85.2217 183.847V181.46C85.2217 180.795 85.6377 180.114 86.5596 180.114H98.0709H98.3157V179.868V174.296V174.05H98.0709H89.3253C82.766 174.05 78.3932 175.51 78.3932 182.658V193.801C78.3932 200.94 82.766 202.409 89.3253 202.409H98.8623H99.107V202.163V196.591V196.345H98.8623H86.5596V196.337Z" fill="black"/>
<path d="M110.569 196.337C109.762 196.337 109.231 195.812 109.231 194.991V192.603C109.231 191.701 109.672 191.257 110.569 191.257H119.707H119.951V191.011V185.439V185.193H119.707H110.569C109.672 185.193 109.231 184.75 109.231 183.847V181.46C109.231 180.795 109.648 180.114 110.569 180.114H122.081H122.325V179.868V174.296V174.05H122.081H113.343C106.784 174.05 102.411 175.51 102.411 182.658V193.801C102.411 200.94 106.784 202.409 113.343 202.409H122.88H123.125V202.163V196.591V196.345H122.88H110.569V196.337Z" fill="black"/>
<path d="M139.433 174.05H127.163H126.919V174.296V202.155V202.401H127.163H139.433C143.847 202.401 146.906 201.113 148.783 198.462C150.398 196.181 151.157 192.931 151.157 188.221C151.157 183.511 150.406 180.253 148.783 177.98C146.906 175.33 143.847 174.05 139.433 174.05ZM144.328 193.399C144.328 195.18 143.186 196.337 141.408 196.337H133.739V180.122H141.408C143.178 180.122 144.328 181.271 144.328 183.06V193.399Z" fill="black"/>
<path d="M168.746 174.214L168.689 174.05H161.656L161.599 174.214L151.548 202.073L151.426 202.409H158.638L158.695 202.245L159.902 198.922H170.451L171.65 202.245L171.707 202.409H178.919L178.797 202.073L168.746 174.214ZM162.097 192.841L165.189 184.299L168.265 192.841H162.097Z" fill="black"/>
<path d="M192.397 173.451C184.083 173.451 178.495 179.392 178.495 188.229C178.495 197.067 184.083 203.008 192.397 203.008C200.71 203.008 206.298 197.067 206.298 188.229C206.298 179.392 200.71 173.451 192.397 173.451ZM199.47 193.998C199.47 195.779 198.328 196.936 196.549 196.936H188.236C186.466 196.936 185.315 195.787 185.315 193.998V182.453C185.315 180.672 186.458 179.515 188.236 179.515H196.549C198.32 179.515 199.47 180.664 199.47 182.453V193.998Z" fill="black"/>
<path d="M91.3893 156.071C105.935 152.288 123.435 144.853 141.081 134.982C143.512 135.318 145.585 136.549 148.032 138.896L151.091 142.629L149.403 138.1C148.065 132.544 148.872 129.5 152.797 125.364L156.509 122.287L152.005 123.986C146.482 125.331 143.455 124.519 139.344 120.572L136.284 116.838L137.973 121.368C138.879 125.118 138.797 127.728 137.443 130.296C127.743 135.687 118.116 140.307 109.068 143.951C103.096 139.741 98.1688 133.866 95.0687 126.636C86.2904 106.162 95.4032 82.4721 115.407 73.1831C105.732 77.9753 101.391 89.6195 105.715 99.6881C110.178 110.085 122.17 114.877 132.507 110.397C142.843 105.908 154.844 110.709 159.299 121.105C163.761 131.502 158.989 143.573 148.652 148.053C140.453 151.607 131.74 152.247 123.647 150.425C120.914 151.672 118.214 152.846 115.554 153.937C121.045 156.103 126.78 157.178 132.507 157.178C138.756 157.178 144.997 155.89 150.912 153.33C170.63 144.779 181.473 124.043 178.503 103.619C183.676 99.5157 188.326 95.421 192.323 91.4165C204.822 78.9026 209.472 68.7765 205.76 62.1298C202.048 55.483 191.026 54.2193 173.902 58.4618C166.372 60.3245 158.05 63.1637 149.313 66.7907C137.867 62.3185 125.377 62.5483 114.086 67.4472C102.68 72.3953 93.8776 81.5121 89.2926 93.1234C86.9838 98.9742 85.8825 105.104 85.9885 111.209C80.9794 115.287 76.4678 119.358 72.5927 123.329C60.2329 135.983 55.6969 146.166 59.4905 152.764C63.2759 159.361 74.3059 160.51 91.3893 156.071ZM121.542 74.176C126.054 78.4923 129.676 80.2648 134.579 80.0842C142.077 76.2931 149.435 72.9944 156.443 70.2864C156.427 70.2782 156.419 70.27 156.402 70.2618C163.084 67.677 169.448 65.6091 175.297 64.1648C191.418 60.1686 198.972 61.9821 200.661 65.01C202.35 68.038 199.968 75.4643 188.195 87.248C184.932 90.5139 181.204 93.8537 177.1 97.2099C176.578 95.4128 175.933 93.6239 175.183 91.8597C172.229 84.9749 167.791 79.0421 162.211 74.3894C154.714 77.1055 146.727 80.5684 138.536 84.6549C135.264 89.2338 134.791 93.427 136.382 100.041L138.87 106.729L134.359 101.214C128.281 95.3964 123.827 94.1983 115.668 96.1759L109.019 98.6787L114.502 94.1409C120.286 88.0275 121.477 83.5471 119.511 75.3412L117.023 68.6535L121.542 74.176ZM76.7615 127.449C79.6985 124.437 83.0189 121.368 86.6575 118.274C87.2775 121.885 88.3299 125.454 89.8066 128.901C92.7517 135.777 97.1898 141.702 102.754 146.347C98.2749 147.963 93.9755 149.317 89.9208 150.376C73.849 154.553 66.27 152.829 64.5486 149.826C62.8272 146.814 65.1279 139.363 76.7615 127.449Z" fill="black"/>
</g>
<defs>
<clipPath id="clip0_55_93">
<rect width="153" height="147" fill="white" transform="translate(54 56)"/>
</clipPath>
</defs>
</svg>
