<svg width="55" height="55" viewBox="0 0 55 55" fill="none" xmlns="http://www.w3.org/2000/svg">
<g clip-path="url(#clip0_55_118)">
<path d="M37.6108 40.7735L40.7096 37.6747L29.7735 26.6747V12.8529H25.6525V28.3253L37.6108 40.7735ZM27.5053 55C23.7464 55 20.1897 54.2759 16.8461 52.8383C13.5024 51.3901 10.5741 49.4201 8.08228 46.9284C5.57986 44.4259 3.60987 41.5082 2.17231 38.1646C0.734753 34.8209 0 31.2536 0 27.5053C0 23.757 0.724104 20.1897 2.16166 16.8461C3.59923 13.5024 5.57986 10.5741 8.07164 8.08228C10.5634 5.59051 13.4918 3.60987 16.8354 2.17231C20.1791 0.734753 23.7464 0 27.5053 0C31.2643 0 34.8209 0.724104 38.1646 2.16166C41.5082 3.59923 44.4366 5.57986 46.9284 8.07164C49.4308 10.5741 51.4008 13.4918 52.8383 16.8354C54.2865 20.1791 55 23.7357 55 27.4947C55 31.2536 54.2759 34.8103 52.8383 38.1539C51.3901 41.4976 49.4201 44.4259 46.9284 46.9177C44.4259 49.4201 41.5082 51.3901 38.1646 52.8277C34.8103 54.2759 31.2536 55 27.5053 55ZM27.5053 50.879C33.9264 50.879 39.4211 48.5895 44 44C48.5789 39.4105 50.879 33.9158 50.879 27.5053C50.879 21.0949 48.5895 15.5895 44 11C39.4105 6.41045 33.9158 4.12101 27.5053 4.12101C21.0949 4.12101 15.5895 6.41045 11 11C6.41045 15.5895 4.12101 21.0842 4.12101 27.5053C4.12101 33.9264 6.41045 39.4211 11 44C15.5895 48.5789 21.0842 50.879 27.5053 50.879Z" fill="black"/>
</g>
<defs>
<clipPath id="clip0_55_118">
<rect width="55" height="55" fill="white"/>
</clipPath>
</defs>
</svg>
