<svg width="60" height="60" viewBox="0 0 60 60" fill="none" xmlns="http://www.w3.org/2000/svg">
<circle cx="30" cy="30" r="30" fill="#54D6FF"/>
<g clip-path="url(#clip0_55_250)">
<path d="M48.2138 18.6792C46.8359 19.3002 45.3515 19.7271 43.7985 19.9134C45.3895 18.9431 46.6076 17.4062 47.1785 15.5744C45.694 16.4748 44.0421 17.1268 42.2912 17.4761C40.8904 15.9547 38.8883 15 36.6806 15C32.4328 15 28.9842 18.5162 28.9842 22.8474C28.9842 23.4606 29.0527 24.0583 29.1822 24.6327C22.7875 24.3067 17.1237 21.1786 13.325 16.436C12.6627 17.5925 12.282 18.9431 12.282 20.3791C12.282 23.1036 13.6371 25.502 15.7077 26.907C14.444 26.8682 13.2641 26.5111 12.2211 25.9289C12.2211 25.96 12.2211 25.991 12.2211 26.0299C12.2211 29.8333 14.8703 33.0002 18.395 33.722C17.7479 33.9006 17.0704 33.9937 16.37 33.9937C15.8752 33.9937 15.388 33.9471 14.9236 33.854C15.9057 36.9666 18.7452 39.2408 22.11 39.3029C19.476 41.4064 16.1569 42.6639 12.5561 42.6639C11.9318 42.6639 11.3228 42.6251 10.7214 42.5552C14.1243 44.7829 18.1742 46.0792 22.5135 46.0792C36.6654 46.0792 44.4075 34.1257 44.4075 23.7556C44.4075 23.414 44.3999 23.0725 44.3847 22.7387C45.8843 21.6365 47.1861 20.2549 48.2138 18.6792Z" fill="white"/>
</g>
<defs>
<clipPath id="clip0_55_250">
<rect width="37.5" height="31.0714" fill="white" transform="translate(10.7144 15)"/>
</clipPath>
</defs>
</svg>
